<svg width="50" height="47" viewBox="0 0 50 47" fill="none" xmlns="http://www.w3.org/2000/svg">
<path d="M19.8381 1.31186L21.3935 3.50716C22.564 3.30151 23.7709 3.19097 24.9986 3.19097L25.5006 3.19868C26.5566 3.22182 27.5919 3.32721 28.6037 3.50458L30.1591 1.31185C31.1111 0.041948 32.8694 -0.397652 34.2844 0.401853L40.839 4.1241C42.1057 4.92618 42.613 6.51222 42.0355 7.88755L40.7896 10.5071C42.293 12.2885 43.4921 14.3322 44.3115 16.5558L47.1414 16.7923C48.7332 16.9671 50 18.2524 50 19.8668V27.134C50 28.7432 48.7333 30.0388 47.1414 30.2085L44.3115 30.445C43.4921 32.6686 42.2931 34.7097 40.7896 36.4937L41.9731 38.9769C42.6259 40.4267 42.0927 42.1285 40.709 42.9537L34.2844 46.5963C32.8721 47.3984 31.1112 46.9588 30.1592 45.6889L28.6038 43.4936C27.4099 43.7018 26.2082 43.7943 24.9987 43.8072C23.771 43.8072 22.5667 43.6992 21.3962 43.4936L19.8382 45.6889C18.9045 47.0025 17.1175 47.3521 15.713 46.5963L9.2884 42.9537C7.88382 42.1542 7.33241 40.4268 8.02431 38.9769L9.21036 36.4911C7.70696 34.7097 6.50527 32.6686 5.68851 30.445L2.85598 30.2085C1.24071 30.0722 0 28.7355 0 27.134V19.8668C0 18.2627 1.24071 16.9285 2.85598 16.7923L5.68851 16.5558C6.50527 14.3322 7.7069 12.291 9.21036 10.5071L8.02431 8.02384C7.33241 6.57402 7.88386 4.84398 9.2884 4.04704L15.713 0.401853C17.1175 -0.351323 18.9044 -0.00430234 19.8381 1.31186ZM33.2494 2.18586C32.7682 1.91337 32.1908 2.07275 31.8657 2.49176L30.1178 4.95444C29.7562 5.46343 29.1319 5.69735 28.5337 5.58425C27.5323 5.39145 26.5023 5.27834 25.4515 5.25263L24.9989 5.24749C23.7894 5.24749 22.6086 5.36317 21.4667 5.58425C20.9048 5.68964 20.3196 5.49171 19.9503 5.04441L18.1347 2.49177C17.8148 2.04191 17.227 1.9468 16.7484 2.18587L10.3238 5.83106C9.85824 6.09583 9.67616 6.6665 9.90505 7.14723L11.2316 9.92611C11.4813 10.4994 11.3955 11.1112 11.0001 11.5996C9.49411 13.3271 8.31059 15.3373 7.54331 17.5352C7.34303 18.1059 6.82284 18.5223 6.1934 18.5763L3.03312 18.8411C2.4947 18.8873 2.08113 19.3321 2.08113 19.8668V27.134C2.08113 27.6687 2.49469 28.1134 3.03312 28.1597L6.1934 28.4219C7.05177 28.5273 7.37425 29.1854 7.6916 29.8743C8.46148 31.9128 9.58779 33.7816 11.0002 35.4011L11.0704 35.4885C11.3851 35.9075 11.4736 36.4654 11.2785 36.9666L11.2317 37.0746L9.90512 39.8535C9.67623 40.3342 9.8583 40.9049 10.3239 41.1696L16.7485 44.8123C17.227 45.0539 17.8149 44.9588 18.1348 44.5089L19.8801 42.0462C20.2312 41.5938 20.7696 41.3291 21.3523 41.3984C22.5669 41.5835 23.766 41.7506 24.999 41.7506C26.1877 41.7352 27.3659 41.6401 28.5338 41.4164C29.158 41.3213 29.7329 41.5475 30.1178 42.0462L31.8657 44.5089C32.1909 44.9279 32.7683 45.0873 33.2495 44.8123L39.674 41.1696C40.1318 40.8792 40.2983 40.3445 40.0928 39.8535L38.7663 37.0746C38.4984 36.5116 38.6024 35.8586 39.0004 35.4011C40.548 33.5785 41.6326 31.5683 42.4988 29.3575C42.7225 28.8434 43.2166 28.4732 43.8071 28.4218L46.9647 28.1596C47.4928 28.0902 47.9193 27.6789 47.9193 27.1339V19.8667C47.8933 19.3217 47.511 18.913 46.9647 18.841L43.8071 18.5762C43.1776 18.5248 42.6808 18.1058 42.4571 17.5351C41.6925 15.3501 40.5012 13.363 39.0004 11.597C38.6024 11.142 38.4984 10.4865 38.7663 9.92346L40.1318 7.05461C40.2879 6.62789 40.1344 6.14718 39.7573 5.88244L33.2494 2.18586ZM25.1391 10.3349C32.6095 10.3349 38.6642 16.3194 38.6642 23.7019C38.6642 31.0844 32.609 37.0689 25.1391 37.0689C17.6693 37.0689 11.614 31.0844 11.614 23.7019C11.614 16.3194 17.6693 10.3349 25.1391 10.3349ZM25.1391 12.3914C18.8186 12.3914 13.6942 17.4556 13.6942 23.7026C13.6942 29.9495 18.8182 35.0137 25.1391 35.0137C31.46 35.0137 36.5841 29.9495 36.5841 23.7026C36.5841 17.4556 31.46 12.3914 25.1391 12.3914ZM23.875 16.309C24.4031 15.3065 25.8752 15.3065 26.4033 16.309C27.4749 18.5224 28.9289 20.3835 31.0878 21.6611L32.3909 22.4375C33.2778 23.0467 33.2778 24.3577 32.3909 24.967L31.0878 25.7433C29.0199 26.9695 27.4229 28.8153 26.4553 30.99C25.9351 32.0723 24.3251 32.1494 23.8231 30.99C22.8555 28.8153 21.2584 26.9695 19.1907 25.7433L17.9786 25.0235C16.9694 24.4246 16.9694 22.9773 17.9786 22.3784L19.1907 21.6612C21.3287 20.3604 22.8034 18.5249 23.875 16.309ZM25.1391 18.4324C23.8802 20.6843 21.9997 22.3938 19.794 23.7022C22.0101 25.0158 23.8776 26.7176 25.1391 28.972C26.4006 26.7176 28.2682 25.0158 30.4843 23.7022C28.2708 22.3886 26.4006 20.6894 25.1391 18.4324Z" fill="url(#paint0_linear_137_2864)"/>
<defs>
<linearGradient id="paint0_linear_137_2864" x1="58.5" y1="-1.01738e-06" x2="-4.69583e-07" y2="44" gradientUnits="userSpaceOnUse">
<stop stop-color="#FF3C00"/>
<stop offset="1" stop-color="#06223C"/>
</linearGradient>
</defs>
</svg>
