<svg width="45" height="49" viewBox="0 0 45 49" fill="none" xmlns="http://www.w3.org/2000/svg">
<mask id="path-1-outside-1_165_4307" maskUnits="userSpaceOnUse" x="0" y="0" width="45" height="49" fill="black">
<rect fill="white" width="45" height="49"/>
<path fill-rule="evenodd" clip-rule="evenodd" d="M19.8698 43.7255H25.1281C25.6309 43.7234 26.1126 43.5218 26.4681 43.1644C26.8236 42.807 27.0242 42.323 27.0261 41.8177V39.9083H17.9719V41.8156C17.9738 42.3209 18.1743 42.805 18.5298 43.1623C18.8853 43.5197 19.367 43.7213 19.8698 43.7234V43.7255ZM20.7704 45.3053C20.9221 45.6379 21.1656 45.9197 21.4719 46.1173C21.7783 46.3149 22.1347 46.4199 22.4987 46.4199C22.8627 46.4199 23.2191 46.3149 23.5255 46.1173C23.8318 45.9197 24.0753 45.6379 24.227 45.3053H20.7704ZM20.0429 46.9813C19.5625 46.4993 19.2336 45.8863 19.097 45.2181C18.416 45.06 17.798 44.6999 17.3232 44.1844C16.8485 43.6689 16.5389 43.0219 16.4346 42.3274C15.5675 41.9256 14.7364 41.4497 13.9504 40.9048L10.7953 44.0754C10.6478 44.2234 10.4479 44.3064 10.2395 44.3064C10.0311 44.3064 9.83118 44.2234 9.68367 44.0754L4.90607 39.2743C4.83305 39.201 4.77512 39.1139 4.7356 39.018C4.69607 38.9222 4.67573 38.8195 4.67573 38.7157C4.67573 38.612 4.69607 38.5093 4.7356 38.4134C4.77512 38.3176 4.83305 38.2305 4.90607 38.1572L8.06896 34.9787C7.26401 33.6057 6.6547 32.126 6.25885 30.5828H1.78579C1.57734 30.5827 1.37747 30.4994 1.23012 30.3512C1.08277 30.2031 1 30.0021 1 29.7927V26.398C0.999932 26.2942 1.02021 26.1915 1.05967 26.0956C1.09912 25.9998 1.15699 25.9127 1.22997 25.8393C1.30294 25.7659 1.38959 25.7077 1.48496 25.668C1.58033 25.6282 1.68255 25.6078 1.78579 25.6078H11.6892C11.8876 25.6078 12.0787 25.6831 12.2241 25.8187C12.3695 25.9543 12.4586 26.1402 12.4734 26.339C12.7255 29.1707 14.0445 30.9573 15.2918 32.6468C16.539 34.3363 17.7193 35.937 17.935 38.3295H20.3256V31.6702H19.7274C19.2981 31.67 18.8786 31.5419 18.5218 31.3021C18.1649 31.0623 17.8869 30.7216 17.7227 30.323C17.5585 29.9245 17.5156 29.4859 17.5994 29.0629C17.6832 28.6398 17.8899 28.2512 18.1935 27.9462C18.497 27.6412 18.8837 27.4334 19.3047 27.3492C19.7257 27.265 20.1621 27.3081 20.5587 27.4731C20.9553 27.6381 21.2943 27.9175 21.5329 28.2761C21.7716 28.6347 21.899 29.0563 21.8992 29.4877V30.0898H23.0987V29.4877C23.0989 29.0563 23.2264 28.6346 23.465 28.276C23.7036 27.9174 24.0427 27.638 24.4394 27.473C24.836 27.3081 25.2724 27.265 25.6934 27.3492C26.1144 27.4335 26.5011 27.6413 26.8046 27.9464C27.1082 28.2514 27.3148 28.6401 27.3986 29.0632C27.4823 29.4863 27.4393 29.9248 27.2751 30.3234C27.1108 30.722 26.8327 31.0626 26.4758 31.3024C26.1189 31.5421 25.6993 31.6701 25.27 31.6702H24.6708V38.3306H27.0344C27.4631 33.3545 32.0443 31.8467 32.5235 26.3301C32.5403 26.1326 32.6304 25.9488 32.7758 25.815C32.9213 25.6812 33.1115 25.6072 33.3087 25.6078H43.2142C43.3174 25.6078 43.4197 25.6282 43.515 25.668C43.6104 25.7077 43.6971 25.7659 43.77 25.8393C43.843 25.9127 43.9009 25.9998 43.9403 26.0956C43.9798 26.1915 44.0001 26.2942 44 26.398V29.7927C44 30.0021 43.9172 30.2031 43.7699 30.3512C43.6225 30.4994 43.4227 30.5827 43.2142 30.5828H38.7448C38.3497 32.1264 37.7385 33.6058 36.9295 34.9766L40.0945 38.1572C40.1675 38.2305 40.2254 38.3176 40.2649 38.4134C40.3044 38.5093 40.3248 38.612 40.3248 38.7157C40.3248 38.8195 40.3044 38.9222 40.2649 39.018C40.2254 39.1139 40.1675 39.201 40.0945 39.2743L35.3168 44.0754C35.1693 44.2234 34.9694 44.3064 34.761 44.3064C34.5526 44.3064 34.3527 44.2234 34.2052 44.0754L31.0548 40.9095C30.2663 41.4675 29.4317 41.9567 28.5602 42.3718C28.4486 43.0576 28.1364 43.6945 27.6635 44.2016C27.1906 44.7086 26.5783 45.0628 25.9046 45.2192C25.7771 45.8351 25.4864 46.405 25.0631 46.8687C24.6399 47.3323 24.0999 47.6724 23.5002 47.853C22.9005 48.0336 22.2634 48.0481 21.6562 47.8948C21.049 47.7415 20.4942 47.4263 20.0507 46.9823L20.0429 46.9813ZM11.2303 22.8304C11.5308 21.3398 12.1223 19.9238 12.9708 18.6644C12.182 18.3729 11.3412 18.2509 10.5027 18.3062C9.66409 18.3615 8.84638 18.5929 8.10232 18.9855C7.35827 19.3781 6.70441 19.9231 6.18295 20.5854C5.6615 21.2477 5.28405 22.0125 5.07497 22.8304H11.2303ZM13.9759 17.3801C15.0533 16.1831 16.3685 15.2264 17.8365 14.5716C19.3045 13.9168 20.8928 13.5785 22.499 13.5785C24.1051 13.5785 25.6934 13.9168 27.1614 14.5716C28.6295 15.2264 29.9446 16.1831 31.022 17.3801C32.1143 16.8889 33.3069 16.6652 34.5019 16.7273C35.6969 16.7894 36.8602 17.1356 37.8962 17.7374C38.9322 18.3393 39.8112 19.1795 40.4612 20.1892C41.1111 21.1989 41.5133 22.3491 41.6348 23.5454C41.6451 23.6547 41.6326 23.7649 41.5981 23.8691C41.5636 23.9732 41.508 24.069 41.4346 24.1504C41.3613 24.2318 41.2719 24.2969 41.1722 24.3416C41.0724 24.3864 40.9645 24.4097 40.8553 24.4103H27.367C27.2621 24.413 27.1577 24.3946 27.0599 24.3561C26.9622 24.3176 26.8731 24.2598 26.798 24.1862C26.7228 24.1126 26.6631 24.0246 26.6223 23.9274C26.5815 23.8302 26.5605 23.7258 26.5605 23.6203C26.5605 23.5149 26.5815 23.4105 26.6223 23.3133C26.6631 23.2161 26.7228 23.1281 26.798 23.0545C26.8731 22.9809 26.9622 22.9231 27.0599 22.8846C27.1577 22.8461 27.2621 22.8277 27.367 22.8304H32.1654C31.649 20.6449 30.4141 18.6983 28.6604 17.3055C26.9068 15.9126 24.7368 15.1549 22.5016 15.1549C20.2663 15.1549 18.0964 15.9126 16.3427 17.3055C14.589 18.6983 13.3541 20.6449 12.8377 22.8304H17.6335C17.8385 22.8357 18.0333 22.9213 18.1764 23.0688C18.3195 23.2164 18.3996 23.4143 18.3996 23.6203C18.3996 23.8264 18.3195 24.0243 18.1764 24.1719C18.0333 24.3194 17.8385 24.405 17.6335 24.4103H4.14315C4.03389 24.4098 3.92593 24.3865 3.82615 24.3418C3.72637 24.2971 3.63695 24.2319 3.56361 24.1506C3.49026 24.0692 3.4346 23.9734 3.40016 23.8692C3.36572 23.765 3.35327 23.6547 3.3636 23.5454C3.48578 22.3495 3.88843 21.1997 4.53849 20.1905C5.18856 19.1813 6.0675 18.3414 7.1032 17.7397C8.13889 17.138 9.30181 16.7917 10.4965 16.7292C11.6912 16.6667 12.8836 16.8898 13.9759 17.3801ZM32.0266 18.6665C32.8754 19.9258 33.4672 21.3418 33.7676 22.8325H39.9224C39.7134 22.0145 39.336 21.2497 38.8146 20.5873C38.2931 19.925 37.6393 19.3799 36.8952 18.9874C36.1511 18.5948 35.3334 18.3633 34.4948 18.3081C33.6562 18.2528 32.8154 18.3749 32.0266 18.6665ZM10.8868 7.80347C10.3174 7.80399 9.76104 7.97415 9.28794 8.29244C8.81484 8.61074 8.44629 9.06286 8.22889 9.59165C8.01148 10.1204 7.955 10.7021 8.06658 11.2632C8.17815 11.8242 8.45278 12.3394 8.85572 12.7436C9.25867 13.1478 9.77184 13.4229 10.3303 13.534C10.8888 13.6451 11.4676 13.5873 11.9934 13.3679C12.5192 13.1484 12.9684 12.7772 13.2843 12.3012C13.6002 11.8252 13.7685 11.2658 13.768 10.6937C13.7672 9.92669 13.4636 9.19138 12.924 8.64905C12.3843 8.10673 11.6526 7.80169 10.8894 7.80086L10.8868 7.80347ZM22.499 1C23.5364 1 24.5505 1.30915 25.4131 1.88835C26.2757 2.46755 26.948 3.2908 27.345 4.25398C27.742 5.21715 27.8459 6.27701 27.6435 7.29951C27.4411 8.32202 26.9415 9.26125 26.208 9.99844C25.4744 10.7356 24.5398 11.2376 23.5223 11.441C22.5048 11.6444 21.4501 11.54 20.4917 11.1411C19.5332 10.7421 18.714 10.0665 18.1376 9.19966C17.5613 8.33282 17.2536 7.3137 17.2536 6.27116C17.2536 4.87316 17.8063 3.53242 18.7899 2.54389C19.7736 1.55535 21.1078 1 22.499 1ZM25.0975 3.66352C24.5838 3.14723 23.9293 2.79562 23.2167 2.65315C22.5042 2.51068 21.7656 2.58375 21.0943 2.86312C20.4231 3.1425 19.8494 3.61562 19.4458 4.22267C19.0421 4.82972 18.8267 5.54342 18.8267 6.27351C18.8267 7.00361 19.0421 7.71731 19.4458 8.32435C19.8494 8.9314 20.4231 9.40453 21.0943 9.6839C21.7656 9.96327 22.5042 10.0363 23.2167 9.89388C23.9293 9.7514 24.5838 9.39979 25.0975 8.8835C25.7861 8.19119 26.1729 7.25239 26.1729 6.27351C26.1729 5.29464 25.7861 4.35583 25.0975 3.66352ZM34.1111 6.22259C33.2307 6.22249 32.3701 6.48476 31.638 6.97624C30.9059 7.46771 30.3353 8.16632 29.9983 8.9837C29.6613 9.80108 29.5732 10.7005 29.7449 11.5683C29.9166 12.436 30.3406 13.2331 30.9631 13.8587C31.5857 14.4843 32.3789 14.9104 33.2424 15.083C34.1059 15.2555 35.0009 15.1669 35.8143 14.8283C36.6277 14.4897 37.3228 13.9162 37.8119 13.1806C38.301 12.4449 38.562 11.58 38.5619 10.6952C38.5617 9.50905 38.0928 8.3715 37.2581 7.53275C36.4235 6.694 35.2915 6.22273 34.1111 6.22259ZM36.1468 8.64953C35.6759 8.17625 35.0563 7.88169 34.3936 7.81603C33.7308 7.75037 33.0659 7.91768 32.5121 8.28945C31.9583 8.66121 31.5499 9.21444 31.3566 9.85486C31.1632 10.4953 31.1967 11.1833 31.4515 11.8016C31.7063 12.42 32.1666 12.9304 32.7539 13.2459C33.3412 13.5615 34.0192 13.6626 34.6724 13.5321C35.3256 13.4016 35.9136 13.0476 36.3361 12.5303C36.7587 12.013 36.9897 11.3645 36.9898 10.6952C36.9897 9.92799 36.6865 9.19217 36.1468 8.64953ZM7.73947 7.53137C7.11708 8.1569 6.69324 8.95385 6.52155 9.82144C6.34986 10.689 6.43802 11.5883 6.7749 12.4055C7.11178 13.2228 7.68224 13.9213 8.41414 14.4127C9.14605 14.9041 10.0065 15.1664 10.8868 15.1664C11.767 15.1664 12.6275 14.9041 13.3594 14.4127C14.0913 13.9213 14.6618 13.2228 14.9987 12.4055C15.3355 11.5883 15.4237 10.689 15.252 9.82144C15.0803 8.95385 14.6565 8.1569 14.0341 7.53137C13.6208 7.116 13.1301 6.7865 12.5901 6.5617C12.0501 6.3369 11.4713 6.22119 10.8868 6.22119C10.3023 6.22119 9.72347 6.3369 9.18345 6.5617C8.64343 6.7865 8.15277 7.116 7.73947 7.53137ZM23.0987 38.3306V31.6702H21.8992V38.3306H23.0987ZM24.6708 29.4877V30.0898H25.27C25.3885 30.0898 25.5043 30.0545 25.6029 29.9884C25.7014 29.9222 25.7782 29.8282 25.8236 29.7182C25.8689 29.6082 25.8808 29.4872 25.8577 29.3704C25.8347 29.2536 25.7776 29.1463 25.6939 29.0621C25.6101 28.9778 25.5034 28.9204 25.3872 28.8971C25.271 28.8738 25.1506 28.8857 25.041 28.9312C24.9315 28.9767 24.8379 29.0538 24.772 29.1527C24.7061 29.2517 24.6709 29.3686 24.6708 29.4877ZM19.7274 30.0898H20.3271V29.4877C20.3271 29.3686 20.292 29.2522 20.2262 29.1532C20.1604 29.0542 20.0668 28.977 19.9573 28.9314C19.8479 28.8858 19.7274 28.8738 19.6112 28.897C19.495 28.9202 19.3882 28.9775 19.3044 29.0617C19.2206 29.1459 19.1635 29.2531 19.1403 29.3699C19.1171 29.4866 19.1289 29.6077 19.1742 29.7177C19.2194 29.8278 19.2962 29.9219 19.3946 29.9881C19.4931 30.0543 19.6089 30.0897 19.7274 30.0898ZM28.5982 40.5872C29.1179 40.2995 29.6376 39.9564 30.137 39.6237C30.3246 39.4989 30.5107 39.3751 30.6884 39.2581C30.8397 39.1456 31.0262 39.0914 31.214 39.1055C31.4017 39.1196 31.5781 39.201 31.7112 39.3349L34.7566 42.3953L38.4226 38.7108L35.3751 35.6482C35.2486 35.5209 35.1694 35.3538 35.1505 35.175C35.1316 34.9961 35.1741 34.816 35.2711 34.6648C35.7657 33.893 36.1908 33.0784 36.5413 32.2306C36.8847 31.3978 37.1538 30.536 37.3452 29.6553C37.3767 29.4717 37.4717 29.3052 37.6135 29.1852C37.7553 29.0652 37.9347 28.9994 38.1201 28.9994H42.4263V27.1876H34.0072C33.5831 30.0371 32.2345 31.8436 30.9529 33.5592C29.7576 35.1573 28.6319 36.6693 28.5737 38.9113C28.5923 38.9794 28.6016 39.0496 28.6013 39.1202V40.5899L28.5982 40.5872ZM16.3998 40.5575V39.1202C16.3707 34.4162 11.8451 32.9252 10.9949 27.1876H2.57573V29.003H6.88509C7.06462 29.003 7.23876 29.0647 7.37851 29.178C7.51826 29.2913 7.6152 29.4492 7.6532 29.6255C8.03358 31.4026 8.7274 33.0969 9.70186 34.6283C9.81307 34.7804 9.8664 34.9675 9.8522 35.1558C9.83799 35.344 9.75719 35.5209 9.62442 35.6545L6.57898 38.7149L10.2449 42.3995L13.2925 39.3364C13.4193 39.2096 13.5855 39.13 13.7635 39.111C13.9414 39.0921 14.1205 39.1347 14.2711 39.232C14.9633 39.6848 15.68 40.1741 16.3998 40.5601V40.5575Z"/>
</mask>
<path fill-rule="evenodd" clip-rule="evenodd" d="M19.8698 43.7255H25.1281C25.6309 43.7234 26.1126 43.5218 26.4681 43.1644C26.8236 42.807 27.0242 42.323 27.0261 41.8177V39.9083H17.9719V41.8156C17.9738 42.3209 18.1743 42.805 18.5298 43.1623C18.8853 43.5197 19.367 43.7213 19.8698 43.7234V43.7255ZM20.7704 45.3053C20.9221 45.6379 21.1656 45.9197 21.4719 46.1173C21.7783 46.3149 22.1347 46.4199 22.4987 46.4199C22.8627 46.4199 23.2191 46.3149 23.5255 46.1173C23.8318 45.9197 24.0753 45.6379 24.227 45.3053H20.7704ZM20.0429 46.9813C19.5625 46.4993 19.2336 45.8863 19.097 45.2181C18.416 45.06 17.798 44.6999 17.3232 44.1844C16.8485 43.6689 16.5389 43.0219 16.4346 42.3274C15.5675 41.9256 14.7364 41.4497 13.9504 40.9048L10.7953 44.0754C10.6478 44.2234 10.4479 44.3064 10.2395 44.3064C10.0311 44.3064 9.83118 44.2234 9.68367 44.0754L4.90607 39.2743C4.83305 39.201 4.77512 39.1139 4.7356 39.018C4.69607 38.9222 4.67573 38.8195 4.67573 38.7157C4.67573 38.612 4.69607 38.5093 4.7356 38.4134C4.77512 38.3176 4.83305 38.2305 4.90607 38.1572L8.06896 34.9787C7.26401 33.6057 6.6547 32.126 6.25885 30.5828H1.78579C1.57734 30.5827 1.37747 30.4994 1.23012 30.3512C1.08277 30.2031 1 30.0021 1 29.7927V26.398C0.999932 26.2942 1.02021 26.1915 1.05967 26.0956C1.09912 25.9998 1.15699 25.9127 1.22997 25.8393C1.30294 25.7659 1.38959 25.7077 1.48496 25.668C1.58033 25.6282 1.68255 25.6078 1.78579 25.6078H11.6892C11.8876 25.6078 12.0787 25.6831 12.2241 25.8187C12.3695 25.9543 12.4586 26.1402 12.4734 26.339C12.7255 29.1707 14.0445 30.9573 15.2918 32.6468C16.539 34.3363 17.7193 35.937 17.935 38.3295H20.3256V31.6702H19.7274C19.2981 31.67 18.8786 31.5419 18.5218 31.3021C18.1649 31.0623 17.8869 30.7216 17.7227 30.323C17.5585 29.9245 17.5156 29.4859 17.5994 29.0629C17.6832 28.6398 17.8899 28.2512 18.1935 27.9462C18.497 27.6412 18.8837 27.4334 19.3047 27.3492C19.7257 27.265 20.1621 27.3081 20.5587 27.4731C20.9553 27.6381 21.2943 27.9175 21.5329 28.2761C21.7716 28.6347 21.899 29.0563 21.8992 29.4877V30.0898H23.0987V29.4877C23.0989 29.0563 23.2264 28.6346 23.465 28.276C23.7036 27.9174 24.0427 27.638 24.4394 27.473C24.836 27.3081 25.2724 27.265 25.6934 27.3492C26.1144 27.4335 26.5011 27.6413 26.8046 27.9464C27.1082 28.2514 27.3148 28.6401 27.3986 29.0632C27.4823 29.4863 27.4393 29.9248 27.2751 30.3234C27.1108 30.722 26.8327 31.0626 26.4758 31.3024C26.1189 31.5421 25.6993 31.6701 25.27 31.6702H24.6708V38.3306H27.0344C27.4631 33.3545 32.0443 31.8467 32.5235 26.3301C32.5403 26.1326 32.6304 25.9488 32.7758 25.815C32.9213 25.6812 33.1115 25.6072 33.3087 25.6078H43.2142C43.3174 25.6078 43.4197 25.6282 43.515 25.668C43.6104 25.7077 43.6971 25.7659 43.77 25.8393C43.843 25.9127 43.9009 25.9998 43.9403 26.0956C43.9798 26.1915 44.0001 26.2942 44 26.398V29.7927C44 30.0021 43.9172 30.2031 43.7699 30.3512C43.6225 30.4994 43.4227 30.5827 43.2142 30.5828H38.7448C38.3497 32.1264 37.7385 33.6058 36.9295 34.9766L40.0945 38.1572C40.1675 38.2305 40.2254 38.3176 40.2649 38.4134C40.3044 38.5093 40.3248 38.612 40.3248 38.7157C40.3248 38.8195 40.3044 38.9222 40.2649 39.018C40.2254 39.1139 40.1675 39.201 40.0945 39.2743L35.3168 44.0754C35.1693 44.2234 34.9694 44.3064 34.761 44.3064C34.5526 44.3064 34.3527 44.2234 34.2052 44.0754L31.0548 40.9095C30.2663 41.4675 29.4317 41.9567 28.5602 42.3718C28.4486 43.0576 28.1364 43.6945 27.6635 44.2016C27.1906 44.7086 26.5783 45.0628 25.9046 45.2192C25.7771 45.8351 25.4864 46.405 25.0631 46.8687C24.6399 47.3323 24.0999 47.6724 23.5002 47.853C22.9005 48.0336 22.2634 48.0481 21.6562 47.8948C21.049 47.7415 20.4942 47.4263 20.0507 46.9823L20.0429 46.9813ZM11.2303 22.8304C11.5308 21.3398 12.1223 19.9238 12.9708 18.6644C12.182 18.3729 11.3412 18.2509 10.5027 18.3062C9.66409 18.3615 8.84638 18.5929 8.10232 18.9855C7.35827 19.3781 6.70441 19.9231 6.18295 20.5854C5.6615 21.2477 5.28405 22.0125 5.07497 22.8304H11.2303ZM13.9759 17.3801C15.0533 16.1831 16.3685 15.2264 17.8365 14.5716C19.3045 13.9168 20.8928 13.5785 22.499 13.5785C24.1051 13.5785 25.6934 13.9168 27.1614 14.5716C28.6295 15.2264 29.9446 16.1831 31.022 17.3801C32.1143 16.8889 33.3069 16.6652 34.5019 16.7273C35.6969 16.7894 36.8602 17.1356 37.8962 17.7374C38.9322 18.3393 39.8112 19.1795 40.4612 20.1892C41.1111 21.1989 41.5133 22.3491 41.6348 23.5454C41.6451 23.6547 41.6326 23.7649 41.5981 23.8691C41.5636 23.9732 41.508 24.069 41.4346 24.1504C41.3613 24.2318 41.2719 24.2969 41.1722 24.3416C41.0724 24.3864 40.9645 24.4097 40.8553 24.4103H27.367C27.2621 24.413 27.1577 24.3946 27.0599 24.3561C26.9622 24.3176 26.8731 24.2598 26.798 24.1862C26.7228 24.1126 26.6631 24.0246 26.6223 23.9274C26.5815 23.8302 26.5605 23.7258 26.5605 23.6203C26.5605 23.5149 26.5815 23.4105 26.6223 23.3133C26.6631 23.2161 26.7228 23.1281 26.798 23.0545C26.8731 22.9809 26.9622 22.9231 27.0599 22.8846C27.1577 22.8461 27.2621 22.8277 27.367 22.8304H32.1654C31.649 20.6449 30.4141 18.6983 28.6604 17.3055C26.9068 15.9126 24.7368 15.1549 22.5016 15.1549C20.2663 15.1549 18.0964 15.9126 16.3427 17.3055C14.589 18.6983 13.3541 20.6449 12.8377 22.8304H17.6335C17.8385 22.8357 18.0333 22.9213 18.1764 23.0688C18.3195 23.2164 18.3996 23.4143 18.3996 23.6203C18.3996 23.8264 18.3195 24.0243 18.1764 24.1719C18.0333 24.3194 17.8385 24.405 17.6335 24.4103H4.14315C4.03389 24.4098 3.92593 24.3865 3.82615 24.3418C3.72637 24.2971 3.63695 24.2319 3.56361 24.1506C3.49026 24.0692 3.4346 23.9734 3.40016 23.8692C3.36572 23.765 3.35327 23.6547 3.3636 23.5454C3.48578 22.3495 3.88843 21.1997 4.53849 20.1905C5.18856 19.1813 6.0675 18.3414 7.1032 17.7397C8.13889 17.138 9.30181 16.7917 10.4965 16.7292C11.6912 16.6667 12.8836 16.8898 13.9759 17.3801ZM32.0266 18.6665C32.8754 19.9258 33.4672 21.3418 33.7676 22.8325H39.9224C39.7134 22.0145 39.336 21.2497 38.8146 20.5873C38.2931 19.925 37.6393 19.3799 36.8952 18.9874C36.1511 18.5948 35.3334 18.3633 34.4948 18.3081C33.6562 18.2528 32.8154 18.3749 32.0266 18.6665ZM10.8868 7.80347C10.3174 7.80399 9.76104 7.97415 9.28794 8.29244C8.81484 8.61074 8.44629 9.06286 8.22889 9.59165C8.01148 10.1204 7.955 10.7021 8.06658 11.2632C8.17815 11.8242 8.45278 12.3394 8.85572 12.7436C9.25867 13.1478 9.77184 13.4229 10.3303 13.534C10.8888 13.6451 11.4676 13.5873 11.9934 13.3679C12.5192 13.1484 12.9684 12.7772 13.2843 12.3012C13.6002 11.8252 13.7685 11.2658 13.768 10.6937C13.7672 9.92669 13.4636 9.19138 12.924 8.64905C12.3843 8.10673 11.6526 7.80169 10.8894 7.80086L10.8868 7.80347ZM22.499 1C23.5364 1 24.5505 1.30915 25.4131 1.88835C26.2757 2.46755 26.948 3.2908 27.345 4.25398C27.742 5.21715 27.8459 6.27701 27.6435 7.29951C27.4411 8.32202 26.9415 9.26125 26.208 9.99844C25.4744 10.7356 24.5398 11.2376 23.5223 11.441C22.5048 11.6444 21.4501 11.54 20.4917 11.1411C19.5332 10.7421 18.714 10.0665 18.1376 9.19966C17.5613 8.33282 17.2536 7.3137 17.2536 6.27116C17.2536 4.87316 17.8063 3.53242 18.7899 2.54389C19.7736 1.55535 21.1078 1 22.499 1ZM25.0975 3.66352C24.5838 3.14723 23.9293 2.79562 23.2167 2.65315C22.5042 2.51068 21.7656 2.58375 21.0943 2.86312C20.4231 3.1425 19.8494 3.61562 19.4458 4.22267C19.0421 4.82972 18.8267 5.54342 18.8267 6.27351C18.8267 7.00361 19.0421 7.71731 19.4458 8.32435C19.8494 8.9314 20.4231 9.40453 21.0943 9.6839C21.7656 9.96327 22.5042 10.0363 23.2167 9.89388C23.9293 9.7514 24.5838 9.39979 25.0975 8.8835C25.7861 8.19119 26.1729 7.25239 26.1729 6.27351C26.1729 5.29464 25.7861 4.35583 25.0975 3.66352ZM34.1111 6.22259C33.2307 6.22249 32.3701 6.48476 31.638 6.97624C30.9059 7.46771 30.3353 8.16632 29.9983 8.9837C29.6613 9.80108 29.5732 10.7005 29.7449 11.5683C29.9166 12.436 30.3406 13.2331 30.9631 13.8587C31.5857 14.4843 32.3789 14.9104 33.2424 15.083C34.1059 15.2555 35.0009 15.1669 35.8143 14.8283C36.6277 14.4897 37.3228 13.9162 37.8119 13.1806C38.301 12.4449 38.562 11.58 38.5619 10.6952C38.5617 9.50905 38.0928 8.3715 37.2581 7.53275C36.4235 6.694 35.2915 6.22273 34.1111 6.22259ZM36.1468 8.64953C35.6759 8.17625 35.0563 7.88169 34.3936 7.81603C33.7308 7.75037 33.0659 7.91768 32.5121 8.28945C31.9583 8.66121 31.5499 9.21444 31.3566 9.85486C31.1632 10.4953 31.1967 11.1833 31.4515 11.8016C31.7063 12.42 32.1666 12.9304 32.7539 13.2459C33.3412 13.5615 34.0192 13.6626 34.6724 13.5321C35.3256 13.4016 35.9136 13.0476 36.3361 12.5303C36.7587 12.013 36.9897 11.3645 36.9898 10.6952C36.9897 9.92799 36.6865 9.19217 36.1468 8.64953ZM7.73947 7.53137C7.11708 8.1569 6.69324 8.95385 6.52155 9.82144C6.34986 10.689 6.43802 11.5883 6.7749 12.4055C7.11178 13.2228 7.68224 13.9213 8.41414 14.4127C9.14605 14.9041 10.0065 15.1664 10.8868 15.1664C11.767 15.1664 12.6275 14.9041 13.3594 14.4127C14.0913 13.9213 14.6618 13.2228 14.9987 12.4055C15.3355 11.5883 15.4237 10.689 15.252 9.82144C15.0803 8.95385 14.6565 8.1569 14.0341 7.53137C13.6208 7.116 13.1301 6.7865 12.5901 6.5617C12.0501 6.3369 11.4713 6.22119 10.8868 6.22119C10.3023 6.22119 9.72347 6.3369 9.18345 6.5617C8.64343 6.7865 8.15277 7.116 7.73947 7.53137ZM23.0987 38.3306V31.6702H21.8992V38.3306H23.0987ZM24.6708 29.4877V30.0898H25.27C25.3885 30.0898 25.5043 30.0545 25.6029 29.9884C25.7014 29.9222 25.7782 29.8282 25.8236 29.7182C25.8689 29.6082 25.8808 29.4872 25.8577 29.3704C25.8347 29.2536 25.7776 29.1463 25.6939 29.0621C25.6101 28.9778 25.5034 28.9204 25.3872 28.8971C25.271 28.8738 25.1506 28.8857 25.041 28.9312C24.9315 28.9767 24.8379 29.0538 24.772 29.1527C24.7061 29.2517 24.6709 29.3686 24.6708 29.4877ZM19.7274 30.0898H20.3271V29.4877C20.3271 29.3686 20.292 29.2522 20.2262 29.1532C20.1604 29.0542 20.0668 28.977 19.9573 28.9314C19.8479 28.8858 19.7274 28.8738 19.6112 28.897C19.495 28.9202 19.3882 28.9775 19.3044 29.0617C19.2206 29.1459 19.1635 29.2531 19.1403 29.3699C19.1171 29.4866 19.1289 29.6077 19.1742 29.7177C19.2194 29.8278 19.2962 29.9219 19.3946 29.9881C19.4931 30.0543 19.6089 30.0897 19.7274 30.0898ZM28.5982 40.5872C29.1179 40.2995 29.6376 39.9564 30.137 39.6237C30.3246 39.4989 30.5107 39.3751 30.6884 39.2581C30.8397 39.1456 31.0262 39.0914 31.214 39.1055C31.4017 39.1196 31.5781 39.201 31.7112 39.3349L34.7566 42.3953L38.4226 38.7108L35.3751 35.6482C35.2486 35.5209 35.1694 35.3538 35.1505 35.175C35.1316 34.9961 35.1741 34.816 35.2711 34.6648C35.7657 33.893 36.1908 33.0784 36.5413 32.2306C36.8847 31.3978 37.1538 30.536 37.3452 29.6553C37.3767 29.4717 37.4717 29.3052 37.6135 29.1852C37.7553 29.0652 37.9347 28.9994 38.1201 28.9994H42.4263V27.1876H34.0072C33.5831 30.0371 32.2345 31.8436 30.9529 33.5592C29.7576 35.1573 28.6319 36.6693 28.5737 38.9113C28.5923 38.9794 28.6016 39.0496 28.6013 39.1202V40.5899L28.5982 40.5872ZM16.3998 40.5575V39.1202C16.3707 34.4162 11.8451 32.9252 10.9949 27.1876H2.57573V29.003H6.88509C7.06462 29.003 7.23876 29.0647 7.37851 29.178C7.51826 29.2913 7.6152 29.4492 7.6532 29.6255C8.03358 31.4026 8.7274 33.0969 9.70186 34.6283C9.81307 34.7804 9.8664 34.9675 9.8522 35.1558C9.83799 35.344 9.75719 35.5209 9.62442 35.6545L6.57898 38.7149L10.2449 42.3995L13.2925 39.3364C13.4193 39.2096 13.5855 39.13 13.7635 39.111C13.9414 39.0921 14.1205 39.1347 14.2711 39.232C14.9633 39.6848 15.68 40.1741 16.3998 40.5601V40.5575Z" fill="url(#paint0_linear_165_4307)"/>
<path fill-rule="evenodd" clip-rule="evenodd" d="M19.8698 43.7255H25.1281C25.6309 43.7234 26.1126 43.5218 26.4681 43.1644C26.8236 42.807 27.0242 42.323 27.0261 41.8177V39.9083H17.9719V41.8156C17.9738 42.3209 18.1743 42.805 18.5298 43.1623C18.8853 43.5197 19.367 43.7213 19.8698 43.7234V43.7255ZM20.7704 45.3053C20.9221 45.6379 21.1656 45.9197 21.4719 46.1173C21.7783 46.3149 22.1347 46.4199 22.4987 46.4199C22.8627 46.4199 23.2191 46.3149 23.5255 46.1173C23.8318 45.9197 24.0753 45.6379 24.227 45.3053H20.7704ZM20.0429 46.9813C19.5625 46.4993 19.2336 45.8863 19.097 45.2181C18.416 45.06 17.798 44.6999 17.3232 44.1844C16.8485 43.6689 16.5389 43.0219 16.4346 42.3274C15.5675 41.9256 14.7364 41.4497 13.9504 40.9048L10.7953 44.0754C10.6478 44.2234 10.4479 44.3064 10.2395 44.3064C10.0311 44.3064 9.83118 44.2234 9.68367 44.0754L4.90607 39.2743C4.83305 39.201 4.77512 39.1139 4.7356 39.018C4.69607 38.9222 4.67573 38.8195 4.67573 38.7157C4.67573 38.612 4.69607 38.5093 4.7356 38.4134C4.77512 38.3176 4.83305 38.2305 4.90607 38.1572L8.06896 34.9787C7.26401 33.6057 6.6547 32.126 6.25885 30.5828H1.78579C1.57734 30.5827 1.37747 30.4994 1.23012 30.3512C1.08277 30.2031 1 30.0021 1 29.7927V26.398C0.999932 26.2942 1.02021 26.1915 1.05967 26.0956C1.09912 25.9998 1.15699 25.9127 1.22997 25.8393C1.30294 25.7659 1.38959 25.7077 1.48496 25.668C1.58033 25.6282 1.68255 25.6078 1.78579 25.6078H11.6892C11.8876 25.6078 12.0787 25.6831 12.2241 25.8187C12.3695 25.9543 12.4586 26.1402 12.4734 26.339C12.7255 29.1707 14.0445 30.9573 15.2918 32.6468C16.539 34.3363 17.7193 35.937 17.935 38.3295H20.3256V31.6702H19.7274C19.2981 31.67 18.8786 31.5419 18.5218 31.3021C18.1649 31.0623 17.8869 30.7216 17.7227 30.323C17.5585 29.9245 17.5156 29.4859 17.5994 29.0629C17.6832 28.6398 17.8899 28.2512 18.1935 27.9462C18.497 27.6412 18.8837 27.4334 19.3047 27.3492C19.7257 27.265 20.1621 27.3081 20.5587 27.4731C20.9553 27.6381 21.2943 27.9175 21.5329 28.2761C21.7716 28.6347 21.899 29.0563 21.8992 29.4877V30.0898H23.0987V29.4877C23.0989 29.0563 23.2264 28.6346 23.465 28.276C23.7036 27.9174 24.0427 27.638 24.4394 27.473C24.836 27.3081 25.2724 27.265 25.6934 27.3492C26.1144 27.4335 26.5011 27.6413 26.8046 27.9464C27.1082 28.2514 27.3148 28.6401 27.3986 29.0632C27.4823 29.4863 27.4393 29.9248 27.2751 30.3234C27.1108 30.722 26.8327 31.0626 26.4758 31.3024C26.1189 31.5421 25.6993 31.6701 25.27 31.6702H24.6708V38.3306H27.0344C27.4631 33.3545 32.0443 31.8467 32.5235 26.3301C32.5403 26.1326 32.6304 25.9488 32.7758 25.815C32.9213 25.6812 33.1115 25.6072 33.3087 25.6078H43.2142C43.3174 25.6078 43.4197 25.6282 43.515 25.668C43.6104 25.7077 43.6971 25.7659 43.77 25.8393C43.843 25.9127 43.9009 25.9998 43.9403 26.0956C43.9798 26.1915 44.0001 26.2942 44 26.398V29.7927C44 30.0021 43.9172 30.2031 43.7699 30.3512C43.6225 30.4994 43.4227 30.5827 43.2142 30.5828H38.7448C38.3497 32.1264 37.7385 33.6058 36.9295 34.9766L40.0945 38.1572C40.1675 38.2305 40.2254 38.3176 40.2649 38.4134C40.3044 38.5093 40.3248 38.612 40.3248 38.7157C40.3248 38.8195 40.3044 38.9222 40.2649 39.018C40.2254 39.1139 40.1675 39.201 40.0945 39.2743L35.3168 44.0754C35.1693 44.2234 34.9694 44.3064 34.761 44.3064C34.5526 44.3064 34.3527 44.2234 34.2052 44.0754L31.0548 40.9095C30.2663 41.4675 29.4317 41.9567 28.5602 42.3718C28.4486 43.0576 28.1364 43.6945 27.6635 44.2016C27.1906 44.7086 26.5783 45.0628 25.9046 45.2192C25.7771 45.8351 25.4864 46.405 25.0631 46.8687C24.6399 47.3323 24.0999 47.6724 23.5002 47.853C22.9005 48.0336 22.2634 48.0481 21.6562 47.8948C21.049 47.7415 20.4942 47.4263 20.0507 46.9823L20.0429 46.9813ZM11.2303 22.8304C11.5308 21.3398 12.1223 19.9238 12.9708 18.6644C12.182 18.3729 11.3412 18.2509 10.5027 18.3062C9.66409 18.3615 8.84638 18.5929 8.10232 18.9855C7.35827 19.3781 6.70441 19.9231 6.18295 20.5854C5.6615 21.2477 5.28405 22.0125 5.07497 22.8304H11.2303ZM13.9759 17.3801C15.0533 16.1831 16.3685 15.2264 17.8365 14.5716C19.3045 13.9168 20.8928 13.5785 22.499 13.5785C24.1051 13.5785 25.6934 13.9168 27.1614 14.5716C28.6295 15.2264 29.9446 16.1831 31.022 17.3801C32.1143 16.8889 33.3069 16.6652 34.5019 16.7273C35.6969 16.7894 36.8602 17.1356 37.8962 17.7374C38.9322 18.3393 39.8112 19.1795 40.4612 20.1892C41.1111 21.1989 41.5133 22.3491 41.6348 23.5454C41.6451 23.6547 41.6326 23.7649 41.5981 23.8691C41.5636 23.9732 41.508 24.069 41.4346 24.1504C41.3613 24.2318 41.2719 24.2969 41.1722 24.3416C41.0724 24.3864 40.9645 24.4097 40.8553 24.4103H27.367C27.2621 24.413 27.1577 24.3946 27.0599 24.3561C26.9622 24.3176 26.8731 24.2598 26.798 24.1862C26.7228 24.1126 26.6631 24.0246 26.6223 23.9274C26.5815 23.8302 26.5605 23.7258 26.5605 23.6203C26.5605 23.5149 26.5815 23.4105 26.6223 23.3133C26.6631 23.2161 26.7228 23.1281 26.798 23.0545C26.8731 22.9809 26.9622 22.9231 27.0599 22.8846C27.1577 22.8461 27.2621 22.8277 27.367 22.8304H32.1654C31.649 20.6449 30.4141 18.6983 28.6604 17.3055C26.9068 15.9126 24.7368 15.1549 22.5016 15.1549C20.2663 15.1549 18.0964 15.9126 16.3427 17.3055C14.589 18.6983 13.3541 20.6449 12.8377 22.8304H17.6335C17.8385 22.8357 18.0333 22.9213 18.1764 23.0688C18.3195 23.2164 18.3996 23.4143 18.3996 23.6203C18.3996 23.8264 18.3195 24.0243 18.1764 24.1719C18.0333 24.3194 17.8385 24.405 17.6335 24.4103H4.14315C4.03389 24.4098 3.92593 24.3865 3.82615 24.3418C3.72637 24.2971 3.63695 24.2319 3.56361 24.1506C3.49026 24.0692 3.4346 23.9734 3.40016 23.8692C3.36572 23.765 3.35327 23.6547 3.3636 23.5454C3.48578 22.3495 3.88843 21.1997 4.53849 20.1905C5.18856 19.1813 6.0675 18.3414 7.1032 17.7397C8.13889 17.138 9.30181 16.7917 10.4965 16.7292C11.6912 16.6667 12.8836 16.8898 13.9759 17.3801ZM32.0266 18.6665C32.8754 19.9258 33.4672 21.3418 33.7676 22.8325H39.9224C39.7134 22.0145 39.336 21.2497 38.8146 20.5873C38.2931 19.925 37.6393 19.3799 36.8952 18.9874C36.1511 18.5948 35.3334 18.3633 34.4948 18.3081C33.6562 18.2528 32.8154 18.3749 32.0266 18.6665ZM10.8868 7.80347C10.3174 7.80399 9.76104 7.97415 9.28794 8.29244C8.81484 8.61074 8.44629 9.06286 8.22889 9.59165C8.01148 10.1204 7.955 10.7021 8.06658 11.2632C8.17815 11.8242 8.45278 12.3394 8.85572 12.7436C9.25867 13.1478 9.77184 13.4229 10.3303 13.534C10.8888 13.6451 11.4676 13.5873 11.9934 13.3679C12.5192 13.1484 12.9684 12.7772 13.2843 12.3012C13.6002 11.8252 13.7685 11.2658 13.768 10.6937C13.7672 9.92669 13.4636 9.19138 12.924 8.64905C12.3843 8.10673 11.6526 7.80169 10.8894 7.80086L10.8868 7.80347ZM22.499 1C23.5364 1 24.5505 1.30915 25.4131 1.88835C26.2757 2.46755 26.948 3.2908 27.345 4.25398C27.742 5.21715 27.8459 6.27701 27.6435 7.29951C27.4411 8.32202 26.9415 9.26125 26.208 9.99844C25.4744 10.7356 24.5398 11.2376 23.5223 11.441C22.5048 11.6444 21.4501 11.54 20.4917 11.1411C19.5332 10.7421 18.714 10.0665 18.1376 9.19966C17.5613 8.33282 17.2536 7.3137 17.2536 6.27116C17.2536 4.87316 17.8063 3.53242 18.7899 2.54389C19.7736 1.55535 21.1078 1 22.499 1ZM25.0975 3.66352C24.5838 3.14723 23.9293 2.79562 23.2167 2.65315C22.5042 2.51068 21.7656 2.58375 21.0943 2.86312C20.4231 3.1425 19.8494 3.61562 19.4458 4.22267C19.0421 4.82972 18.8267 5.54342 18.8267 6.27351C18.8267 7.00361 19.0421 7.71731 19.4458 8.32435C19.8494 8.9314 20.4231 9.40453 21.0943 9.6839C21.7656 9.96327 22.5042 10.0363 23.2167 9.89388C23.9293 9.7514 24.5838 9.39979 25.0975 8.8835C25.7861 8.19119 26.1729 7.25239 26.1729 6.27351C26.1729 5.29464 25.7861 4.35583 25.0975 3.66352ZM34.1111 6.22259C33.2307 6.22249 32.3701 6.48476 31.638 6.97624C30.9059 7.46771 30.3353 8.16632 29.9983 8.9837C29.6613 9.80108 29.5732 10.7005 29.7449 11.5683C29.9166 12.436 30.3406 13.2331 30.9631 13.8587C31.5857 14.4843 32.3789 14.9104 33.2424 15.083C34.1059 15.2555 35.0009 15.1669 35.8143 14.8283C36.6277 14.4897 37.3228 13.9162 37.8119 13.1806C38.301 12.4449 38.562 11.58 38.5619 10.6952C38.5617 9.50905 38.0928 8.3715 37.2581 7.53275C36.4235 6.694 35.2915 6.22273 34.1111 6.22259ZM36.1468 8.64953C35.6759 8.17625 35.0563 7.88169 34.3936 7.81603C33.7308 7.75037 33.0659 7.91768 32.5121 8.28945C31.9583 8.66121 31.5499 9.21444 31.3566 9.85486C31.1632 10.4953 31.1967 11.1833 31.4515 11.8016C31.7063 12.42 32.1666 12.9304 32.7539 13.2459C33.3412 13.5615 34.0192 13.6626 34.6724 13.5321C35.3256 13.4016 35.9136 13.0476 36.3361 12.5303C36.7587 12.013 36.9897 11.3645 36.9898 10.6952C36.9897 9.92799 36.6865 9.19217 36.1468 8.64953ZM7.73947 7.53137C7.11708 8.1569 6.69324 8.95385 6.52155 9.82144C6.34986 10.689 6.43802 11.5883 6.7749 12.4055C7.11178 13.2228 7.68224 13.9213 8.41414 14.4127C9.14605 14.9041 10.0065 15.1664 10.8868 15.1664C11.767 15.1664 12.6275 14.9041 13.3594 14.4127C14.0913 13.9213 14.6618 13.2228 14.9987 12.4055C15.3355 11.5883 15.4237 10.689 15.252 9.82144C15.0803 8.95385 14.6565 8.1569 14.0341 7.53137C13.6208 7.116 13.1301 6.7865 12.5901 6.5617C12.0501 6.3369 11.4713 6.22119 10.8868 6.22119C10.3023 6.22119 9.72347 6.3369 9.18345 6.5617C8.64343 6.7865 8.15277 7.116 7.73947 7.53137ZM23.0987 38.3306V31.6702H21.8992V38.3306H23.0987ZM24.6708 29.4877V30.0898H25.27C25.3885 30.0898 25.5043 30.0545 25.6029 29.9884C25.7014 29.9222 25.7782 29.8282 25.8236 29.7182C25.8689 29.6082 25.8808 29.4872 25.8577 29.3704C25.8347 29.2536 25.7776 29.1463 25.6939 29.0621C25.6101 28.9778 25.5034 28.9204 25.3872 28.8971C25.271 28.8738 25.1506 28.8857 25.041 28.9312C24.9315 28.9767 24.8379 29.0538 24.772 29.1527C24.7061 29.2517 24.6709 29.3686 24.6708 29.4877ZM19.7274 30.0898H20.3271V29.4877C20.3271 29.3686 20.292 29.2522 20.2262 29.1532C20.1604 29.0542 20.0668 28.977 19.9573 28.9314C19.8479 28.8858 19.7274 28.8738 19.6112 28.897C19.495 28.9202 19.3882 28.9775 19.3044 29.0617C19.2206 29.1459 19.1635 29.2531 19.1403 29.3699C19.1171 29.4866 19.1289 29.6077 19.1742 29.7177C19.2194 29.8278 19.2962 29.9219 19.3946 29.9881C19.4931 30.0543 19.6089 30.0897 19.7274 30.0898ZM28.5982 40.5872C29.1179 40.2995 29.6376 39.9564 30.137 39.6237C30.3246 39.4989 30.5107 39.3751 30.6884 39.2581C30.8397 39.1456 31.0262 39.0914 31.214 39.1055C31.4017 39.1196 31.5781 39.201 31.7112 39.3349L34.7566 42.3953L38.4226 38.7108L35.3751 35.6482C35.2486 35.5209 35.1694 35.3538 35.1505 35.175C35.1316 34.9961 35.1741 34.816 35.2711 34.6648C35.7657 33.893 36.1908 33.0784 36.5413 32.2306C36.8847 31.3978 37.1538 30.536 37.3452 29.6553C37.3767 29.4717 37.4717 29.3052 37.6135 29.1852C37.7553 29.0652 37.9347 28.9994 38.1201 28.9994H42.4263V27.1876H34.0072C33.5831 30.0371 32.2345 31.8436 30.9529 33.5592C29.7576 35.1573 28.6319 36.6693 28.5737 38.9113C28.5923 38.9794 28.6016 39.0496 28.6013 39.1202V40.5899L28.5982 40.5872ZM16.3998 40.5575V39.1202C16.3707 34.4162 11.8451 32.9252 10.9949 27.1876H2.57573V29.003H6.88509C7.06462 29.003 7.23876 29.0647 7.37851 29.178C7.51826 29.2913 7.6152 29.4492 7.6532 29.6255C8.03358 31.4026 8.7274 33.0969 9.70186 34.6283C9.81307 34.7804 9.8664 34.9675 9.8522 35.1558C9.83799 35.344 9.75719 35.5209 9.62442 35.6545L6.57898 38.7149L10.2449 42.3995L13.2925 39.3364C13.4193 39.2096 13.5855 39.13 13.7635 39.111C13.9414 39.0921 14.1205 39.1347 14.2711 39.232C14.9633 39.6848 15.68 40.1741 16.3998 40.5601V40.5575Z" stroke="url(#paint1_linear_165_4307)" stroke-width="0.2" mask="url(#path-1-outside-1_165_4307)"/>
<defs>
<linearGradient id="paint0_linear_165_4307" x1="51.31" y1="0.999999" x2="-4.22505" y2="36.9222" gradientUnits="userSpaceOnUse">
<stop stop-color="#FF3C00"/>
<stop offset="1" stop-color="#06223C"/>
</linearGradient>
<linearGradient id="paint1_linear_165_4307" x1="51.31" y1="0.999999" x2="-4.22505" y2="36.9222" gradientUnits="userSpaceOnUse">
<stop stop-color="#FF3C00"/>
<stop offset="1" stop-color="#06223C"/>
</linearGradient>
</defs>
</svg>
