<svg width="50" height="34" viewBox="0 0 50 34" fill="none" xmlns="http://www.w3.org/2000/svg">
<path d="M49.8911 15.6765L46.3864 2.35868C45.9394 0.663846 44.2229 -0.345947 42.5584 0.109198L39.5399 0.933393C38.3116 1.26926 37.4545 2.31003 37.2679 3.5121L29.6181 3.63363C28.0253 3.65793 26.4781 3.97834 25.0024 4.55506C23.5224 3.97835 21.9708 3.66016 20.3802 3.63363L12.7305 3.5121C12.5417 2.31003 11.6845 1.26929 10.4584 0.933393L7.43987 0.109198C5.77543 -0.345998 4.05893 0.66383 3.61189 2.35868L0.10724 15.6765C-0.339794 17.3713 0.651926 19.1191 2.31638 19.5743L5.33494 20.3985C6.45035 20.7012 7.57664 20.3411 8.34267 19.5654L8.87867 20.1134C8.69855 20.878 8.78753 21.711 9.20418 22.4447C9.60564 23.154 10.2393 23.6357 10.9489 23.8699C10.7948 24.6123 10.886 25.4101 11.2874 26.1194C11.843 27.1005 12.8347 27.6573 13.8676 27.7015C13.8719 28.2341 13.9935 28.771 14.2734 29.2638C14.8289 30.2449 15.8185 30.8017 16.8536 30.8459C16.8579 31.3784 16.9795 31.9154 17.2594 32.4081C18.1231 33.9306 20.0327 34.4521 21.5279 33.5727L23.3312 32.512C23.8564 32.2026 24.2535 31.7563 24.5182 31.2502L28.4699 33.5727C28.9604 33.8621 29.4964 33.9991 30.0281 33.9991C31.1087 33.9991 32.1612 33.429 32.7406 32.4081C33.0162 31.922 33.1442 31.3829 33.1464 30.8371C34.1794 30.7929 35.1711 30.2405 35.7266 29.2638C36.0065 28.7688 36.1281 28.2275 36.1302 27.6928C37.1632 27.6486 38.1571 27.0983 38.7126 26.1195C39.1032 25.43 39.2139 24.6346 39.049 23.8612C39.7585 23.627 40.3944 23.1519 40.7958 22.4448C41.2125 21.709 41.308 20.8737 41.1257 20.1069L41.6573 19.5634C42.4212 20.3368 43.5496 20.6991 44.6651 20.3964L47.6836 19.5722C49.3481 19.117 50.3398 17.3692 49.8928 15.6744L49.8911 15.6765ZM5.87376 18.348L2.8552 17.5238C2.30183 17.3735 1.96978 16.7902 2.11956 16.2245L5.62421 2.90671C5.77394 2.34324 6.34468 2.00513 6.90022 2.15763L9.91878 2.98183C10.4721 3.13208 10.8042 3.71546 10.6544 4.28114L7.14977 17.6012C7.00003 18.1646 6.42929 18.5028 5.87376 18.3503V18.348ZM11.0081 21.3863C10.7195 20.8781 10.8909 20.2306 11.3901 19.9368L13.1934 18.8761C13.6925 18.5822 14.3283 18.7568 14.6169 19.265C14.9056 19.7732 14.7341 20.4207 14.235 20.7146L12.4317 21.7752C11.9326 22.0691 11.2967 21.8945 11.0081 21.3863ZM14.5149 25.4477C14.0158 25.7416 13.38 25.567 13.0914 25.0588C12.8028 24.5506 12.9742 23.9031 13.4733 23.6093L16.1794 22.0183C16.6785 21.7244 17.3143 21.899 17.6029 22.4072C17.8916 22.9154 17.7201 23.5629 17.221 23.8567L14.5149 25.4477ZM17.4988 28.5921C16.9997 28.886 16.3638 28.7114 16.0752 28.2032C15.7866 27.695 15.958 27.0475 16.4572 26.7536L18.2605 25.693C18.7596 25.3991 19.3954 25.5737 19.684 26.0819C19.9727 26.5901 19.8012 27.2376 19.3021 27.5315L17.4988 28.5921ZM22.2881 30.6758L20.4848 31.7365C19.9857 32.0304 19.3498 31.8558 19.0612 31.3476C18.7748 30.8416 18.944 30.1919 19.4432 29.898L21.2465 28.8374C21.7456 28.5435 22.3814 28.7181 22.67 29.2263C22.9587 29.7345 22.7872 30.382 22.2881 30.6758ZM38.9886 21.3863C38.7 21.8923 38.062 22.0668 37.5651 21.7752L28.6398 16.5294C28.1407 16.2355 27.5049 16.4101 27.2163 16.9183C26.9298 17.4265 27.0991 18.074 27.5982 18.3678L36.5234 23.6136C37.0204 23.9053 37.1918 24.555 36.9054 25.0632C36.6189 25.5692 35.9787 25.7437 35.4818 25.4521L26.5566 20.2063C26.0575 19.9124 25.4216 20.087 25.133 20.5952C24.8444 21.1034 25.0158 21.7509 25.5149 22.0448L33.5374 26.7624C34.0344 27.0541 34.2058 27.7038 33.9194 28.212C33.6307 28.718 32.9906 28.8925 32.4958 28.6009L24.4733 23.8832C23.9742 23.5893 23.3384 23.7639 23.0498 24.2721C22.7633 24.7781 22.9326 25.4278 23.4317 25.7217L30.5514 29.9068C30.7923 30.0482 30.9637 30.278 31.0375 30.5498C31.1091 30.8238 31.0722 31.1089 30.9334 31.3541C30.6469 31.8602 30.0089 32.0347 29.5098 31.743L24.7769 28.961C24.7075 28.6915 24.6163 28.4263 24.4731 28.1744C23.9176 27.1933 22.9258 26.6364 21.8929 26.5923C21.8886 26.0597 21.7671 25.5228 21.4871 25.03C21.0857 24.3207 20.452 23.839 19.7424 23.6048C19.8965 22.8623 19.8053 22.0646 19.4039 21.3553C18.8483 20.3764 17.8588 19.8173 16.8237 19.7732C16.8194 19.2406 16.6978 18.7037 16.4179 18.2109C15.5542 16.6885 13.6445 16.167 12.1494 17.0464L10.3461 18.1071C10.2397 18.1689 10.1507 18.2485 10.0553 18.3214L9.31529 17.5657L12.4553 5.63555L20.3456 5.75929C20.9076 5.76813 21.461 5.83221 22.0101 5.9206L17.0623 8.26947C16.3071 8.62744 15.7321 9.26603 15.4478 10.066C15.1614 10.8637 15.1983 11.7276 15.552 12.4988C15.9036 13.27 16.5307 13.8533 17.3163 14.1451C18.0997 14.4367 18.9482 14.3992 19.7055 14.039L24.6034 11.7122L38.6067 19.9456C38.7652 20.0385 38.891 20.1688 38.9778 20.3169C38.9908 20.3434 39.0039 20.3699 39.0191 20.3942C39.1666 20.7014 39.1666 21.0748 38.9865 21.393L38.9886 21.3863ZM39.9521 18.3015C39.8567 18.2286 39.7568 18.1623 39.6505 18.1005L25.1782 9.59322C25.0177 9.4982 24.8375 9.4518 24.6574 9.4518C24.5077 9.4518 24.358 9.48495 24.2169 9.55123L18.8265 12.11C18.5748 12.2294 18.2905 12.2404 18.0301 12.1454C17.7675 12.0482 17.5592 11.8537 17.442 11.5974C17.3248 11.3411 17.3118 11.0538 17.4073 10.7864C17.5027 10.5191 17.6937 10.3069 17.9454 10.1876L24.9852 6.84432C26.4586 6.14605 28.0276 5.77926 29.6508 5.75273L37.5411 5.62899L40.6811 17.5592L39.952 18.3038L39.9521 18.3015ZM47.1413 17.5259L44.1228 18.3501C43.5694 18.5004 42.9965 18.1645 42.8468 17.6011L39.3421 4.28102C39.1924 3.71756 39.5244 3.13422 40.0778 2.98172L43.0963 2.15752C43.6497 2.00727 44.2225 2.34313 44.3723 2.90659L47.877 16.2244C48.0267 16.7878 47.6947 17.3712 47.1413 17.5237V17.5259Z" fill="url(#paint0_linear_165_2634)"/>
<defs>
<linearGradient id="paint0_linear_165_2634" x1="58.5" y1="-7.35973e-07" x2="14.4859" y2="45.7623" gradientUnits="userSpaceOnUse">
<stop stop-color="#FF3C00"/>
<stop offset="1" stop-color="#06223C"/>
</linearGradient>
</defs>
</svg>
