<svg width="49" height="49" viewBox="0 0 49 49" fill="none" xmlns="http://www.w3.org/2000/svg">
<mask id="path-1-outside-1_137_2879" maskUnits="userSpaceOnUse" x="0" y="0" width="49" height="49" fill="black">
<rect fill="white" width="49" height="49"/>
<path fill-rule="evenodd" clip-rule="evenodd" d="M8.14996 1C9.2858 1 10.3139 1.46022 11.0601 2.20439C11.8043 2.9486 12.2645 3.97872 12.2645 5.11458C12.2645 6.25044 11.8042 7.28056 11.0601 8.02476C10.878 8.20689 10.6802 8.3714 10.4667 8.51632C11.4537 8.89821 12.3448 9.51707 13.085 10.3141C14.3599 11.685 15.1883 13.5866 15.296 15.7036C15.3078 15.9445 15.1688 16.1599 14.9612 16.254V16.2559C12.6719 17.2978 10.3884 17.8187 8.11087 17.8187C5.83134 17.8187 3.5714 17.2978 1.33127 16.254C1.10018 16.1462 0.974848 15.9034 1.00423 15.6625C1.12173 13.5631 1.94815 11.6791 3.21323 10.3161C3.9535 9.51907 4.84453 8.90021 5.83157 8.51833C5.61811 8.37341 5.42031 8.2089 5.23818 8.02677C4.494 7.28257 4.03382 6.25244 4.03382 5.11659C4.03382 3.98073 4.49403 2.95256 5.23818 2.2064C5.98628 1.4622 7.01413 1 8.14996 1ZM7.01609 26.5317C7.05134 26.8451 6.82612 27.129 6.51279 27.1643C6.19749 27.1995 5.9155 26.9743 5.88025 26.661C5.83913 26.3124 5.80975 25.952 5.78821 25.5819C5.76667 25.2079 5.75688 24.8476 5.75688 24.4989C5.75688 24.0289 5.7745 23.555 5.80975 23.083C5.845 22.6071 5.89788 22.1391 5.96838 21.6788C6.01538 21.3655 6.30718 21.15 6.62052 21.1971C6.93387 21.2441 7.14929 21.5359 7.10228 21.8492C7.0357 22.2859 6.98674 22.7266 6.95344 23.1692C6.92015 23.602 6.90448 24.0465 6.90448 24.5009C6.90448 24.8592 6.91428 25.2 6.9319 25.5212C6.94757 25.8522 6.97692 26.189 7.01609 26.5317ZM16.7746 8.67717C16.4907 8.81621 16.1499 8.69871 16.0109 8.41474C15.8719 8.13077 15.9894 7.79001 16.2733 7.65099C17.5364 7.03407 18.876 6.55233 20.2723 6.23116C21.6333 5.91586 23.0493 5.75136 24.5004 5.75136C25.9515 5.75136 27.3654 5.91782 28.7285 6.23116C30.1248 6.5543 31.4643 7.03217 32.7275 7.65099C33.0114 7.79003 33.1289 8.13079 32.9899 8.41474C32.8508 8.69871 32.5101 8.81621 32.2261 8.67717C31.0472 8.09946 29.7899 7.65096 28.4739 7.34744C27.201 7.05368 25.8713 6.89897 24.5024 6.89897C23.1335 6.89897 21.8038 7.05368 20.5289 7.34744C19.2128 7.65099 17.9555 8.10142 16.7746 8.67717ZM41.9022 21.8436C41.8552 21.5303 42.0707 21.2385 42.384 21.1915C42.6973 21.1444 42.9891 21.3599 43.0361 21.6732C43.1066 22.1335 43.1595 22.6035 43.1948 23.0813C43.23 23.5553 43.2477 24.0292 43.2477 24.5011C43.2477 24.8497 43.2359 25.2101 43.2144 25.5842C43.1928 25.9543 43.1634 26.3146 43.1223 26.6632C43.0871 26.9766 42.8031 27.2018 42.4898 27.1665C42.1745 27.1313 41.9512 26.8473 41.9865 26.532C42.0257 26.1912 42.055 25.8524 42.0746 25.5195C42.0922 25.1984 42.102 24.8576 42.102 24.4992C42.102 24.0448 42.0844 23.5983 42.0531 23.1635C42.0198 22.7229 41.9688 22.2803 41.9022 21.8436ZM30.0877 41.1982C30.3873 41.0983 30.7105 41.2589 30.8103 41.5586C30.9102 41.8582 30.7496 42.1813 30.45 42.2812C29.5061 42.5965 28.5269 42.8394 27.5183 43.0039C26.5293 43.1644 25.5208 43.2467 24.5005 43.2467C23.4802 43.2467 22.4716 43.1625 21.4827 43.0019C20.4761 42.8394 19.4969 42.5965 18.551 42.2793C18.2514 42.1794 18.0908 41.8543 18.1907 41.5566C18.2906 41.257 18.6156 41.0964 18.9133 41.1963C19.8004 41.492 20.7189 41.7211 21.6609 41.8739C22.5774 42.0227 23.5272 42.0991 24.5005 42.0991C25.4738 42.0991 26.4217 42.0227 27.3382 41.8739C28.2821 41.7231 29.1986 41.494 30.0877 41.1982ZM16.6869 17.4959C16.4637 17.2727 16.4637 16.9103 16.6869 16.6851C16.9102 16.4619 17.2725 16.4619 17.4977 16.6851L19.2367 18.4242C19.46 18.6475 19.46 19.0117 19.2367 19.235C19.0135 19.4582 18.6512 19.4583 18.426 19.235L16.6869 17.4959ZM32.2284 33.0378C32.0052 32.8145 32.0052 32.4522 32.2284 32.227C32.4517 32.0037 32.814 32.0037 33.0392 32.227L35.4284 34.6162C35.6516 34.8395 35.6516 35.2018 35.4284 35.427C35.2051 35.6502 34.8428 35.6502 34.6176 35.427L32.2284 33.0378ZM31.5058 16.6852C31.729 16.462 32.0913 16.462 32.3165 16.6852C32.5398 16.9085 32.5398 17.2708 32.3165 17.496L30.5775 19.2351C30.3543 19.4583 29.9919 19.4583 29.7667 19.2351C29.5435 19.0118 29.5435 18.6495 29.7667 18.4243L31.5058 16.6852ZM15.9683 32.2231C16.1915 31.9998 16.5539 31.9998 16.7791 32.2231C17.0023 32.4463 17.0023 32.8086 16.7791 33.0338L14.386 35.427C14.1627 35.6502 13.8004 35.6502 13.5752 35.427C13.3519 35.2037 13.3519 34.8414 13.5752 34.6162L15.9683 32.2231ZM31.3138 31.3437V31.3418C31.5214 31.2478 31.6604 31.0343 31.6487 30.7915C31.539 28.6744 30.7106 26.7728 29.4357 25.4019C28.6954 24.6049 27.8044 23.986 26.8173 23.6042C27.0308 23.4592 27.2286 23.2947 27.4107 23.1126C28.1549 22.3684 28.6151 21.3383 28.6151 20.2024C28.6151 19.0666 28.1549 18.0384 27.4107 17.2922C26.6665 16.548 25.6364 16.0878 24.5006 16.0878C23.3648 16.0878 22.3347 16.5481 21.5905 17.2922C20.8463 18.0364 20.3861 19.0666 20.3861 20.2024C20.3861 21.3383 20.8463 22.3684 21.5905 23.1126C21.7726 23.2947 21.9704 23.4592 22.1839 23.6042C21.1968 23.986 20.3058 24.6049 19.5655 25.4019C18.3005 26.763 17.474 28.647 17.3565 30.7483C17.3252 30.9892 17.4525 31.2321 17.6836 31.3398C19.924 32.3836 22.1839 32.9045 24.4632 32.9045C26.7427 32.9065 29.0245 32.3856 31.3138 31.3437ZM24.4635 31.7648C22.4797 31.7648 20.4998 31.332 18.5256 30.4644C18.694 28.7802 19.3834 27.28 20.4037 26.1833C21.4769 25.0279 22.9182 24.3209 24.5006 24.3209C26.083 24.3209 27.5243 25.0279 28.5975 26.1833C29.6178 27.28 30.3071 28.7782 30.4755 30.4604C28.4545 31.33 26.4511 31.7648 24.4635 31.7648ZM26.6 18.107C27.1366 18.6436 27.4696 19.3859 27.4696 20.2064C27.4696 21.027 27.1366 21.7692 26.6 22.3058C26.0634 22.8424 25.3212 23.1754 24.5007 23.1754C23.6801 23.1754 22.9379 22.8424 22.4013 22.3058C21.8647 21.7692 21.5318 21.027 21.5318 20.2064C21.5318 19.3859 21.8647 18.6436 22.4013 18.107C22.9379 17.5704 23.6801 17.2375 24.5007 17.2375C25.3212 17.2375 26.0634 17.5704 26.6 18.107ZM14.9635 46.4353V46.4333C15.171 46.3393 15.3101 46.1259 15.2983 45.883C15.1906 43.766 14.3603 41.8644 13.0873 40.4935C12.3471 39.6964 11.456 39.0776 10.469 38.6957C10.6825 38.5508 10.8802 38.3863 11.0624 38.2041C11.8066 37.4599 12.2667 36.4298 12.2667 35.294C12.2667 34.1581 11.8065 33.1299 11.0624 32.3838C10.3182 31.6396 9.28809 31.1794 8.15225 31.1794C7.01642 31.1794 5.98632 31.6396 5.24213 32.3838C4.49599 33.1319 4.03581 34.1601 4.03581 35.2979C4.03581 36.4337 4.49603 37.4639 5.24018 38.2081C5.4223 38.3902 5.6201 38.5547 5.83356 38.6996C4.84653 39.0815 3.9555 39.7004 3.21522 40.4974C1.95014 41.8585 1.12369 43.7425 1.00622 45.8438C0.974888 46.0847 1.10218 46.3275 1.33327 46.4352C3.57365 47.479 5.83358 48 8.11287 48C10.3905 47.998 12.6742 47.4771 14.9635 46.4353ZM8.11317 46.8563C6.12937 46.8563 4.14948 46.4235 2.17531 45.5559C2.34373 43.8717 3.03305 42.3716 4.05337 41.2749C5.12654 40.1194 6.56789 39.4125 8.15026 39.4125C9.73264 39.4125 11.1739 40.1195 12.2472 41.2749C13.2675 42.3716 13.9568 43.8698 14.1252 45.552C12.1042 46.4215 10.1008 46.8544 8.11317 46.8563ZM10.2497 33.1986C10.7863 33.7352 11.1192 34.4774 11.1192 35.298C11.1192 36.1185 10.7863 36.8608 10.2497 37.3974C9.71314 37.934 8.97091 38.2669 8.15036 38.2669C7.32982 38.2669 6.58759 37.934 6.05101 37.3974C5.51443 36.8608 5.18149 36.1185 5.18149 35.298C5.18149 34.4774 5.51441 33.7352 6.05101 33.1986C6.58759 32.662 7.32982 32.329 8.15036 32.329C8.97091 32.329 9.71314 32.66 10.2497 33.1986ZM47.6641 46.4352V46.4333C47.8717 46.3392 48.0108 46.1258 47.999 45.8829C47.8893 43.7659 47.061 41.8643 45.7861 40.4934C45.0458 39.6964 44.1547 39.0775 43.1677 38.6956C43.3812 38.5507 43.579 38.3862 43.7611 38.2041C44.5053 37.4599 44.9655 36.4297 44.9655 35.2939C44.9655 34.158 44.5052 33.1299 43.7611 32.3837C43.0169 31.6395 41.9868 31.1793 40.851 31.1793C39.7151 31.1793 38.685 31.6395 37.9409 32.3837C37.1967 33.1279 36.7365 34.158 36.7365 35.2939C36.7365 36.4297 37.1967 37.4599 37.9409 38.2041C38.123 38.3862 38.3208 38.5507 38.5342 38.6956C37.5472 39.0775 36.6562 39.6964 35.9159 40.4934C34.6508 41.8545 33.8244 43.7385 33.7069 45.8398C33.6756 46.0807 33.8029 46.3235 34.0339 46.4312C36.2743 47.4751 38.5343 47.996 40.8135 47.996C43.0911 47.998 45.3749 47.4771 47.6641 46.4352ZM40.8138 46.8563C38.83 46.8563 36.8502 46.4235 34.876 45.5559C35.0444 43.8716 35.7337 42.3715 36.754 41.2748C37.8272 40.1193 39.2686 39.4124 40.8509 39.4124C42.4333 39.4124 43.8746 40.1194 44.9478 41.2748C45.9682 42.3715 46.6575 43.8697 46.8259 45.5519C44.8049 46.4214 42.8015 46.8543 40.8138 46.8563ZM42.9504 33.1985C43.487 33.7351 43.8199 34.4773 43.8199 35.2979C43.8199 36.1185 43.487 36.8607 42.9504 37.3973C42.4138 37.9339 41.6716 38.2668 40.851 38.2668C40.0305 38.2668 39.2883 37.9339 38.7517 37.3973C38.2151 36.8607 37.8822 36.1185 37.8822 35.2979C37.8822 34.4773 38.2151 33.7351 38.7517 33.1985C39.2883 32.6619 40.0305 32.329 40.851 32.329C41.6716 32.329 42.4138 32.6599 42.9504 33.1985ZM47.6641 16.2544C45.3748 17.2962 43.0914 17.8172 40.8138 17.8172C38.5343 17.8172 36.2744 17.2962 34.0342 16.2524C33.8032 16.1447 33.6778 15.9019 33.7072 15.661C33.8247 13.5616 34.6511 11.6776 35.9162 10.3146C36.6565 9.51754 37.5475 8.89867 38.5345 8.5168C38.3211 8.37188 38.1233 8.20737 37.9411 8.02524C37.197 7.28103 36.7368 6.25091 36.7368 5.11505C36.7368 3.9792 37.197 2.94907 37.9411 2.20487C38.6853 1.46067 39.7154 1.00048 40.8513 1.00048C41.9871 1.00048 43.0172 1.4607 43.7614 2.20487C44.5056 2.94904 44.9658 3.9792 44.9658 5.11505C44.9658 6.25091 44.5055 7.27908 43.7614 8.02524C43.5793 8.20737 43.3815 8.37188 43.168 8.5168C44.155 8.89868 45.0461 9.51754 45.7864 10.3146C47.0613 11.6855 47.8896 13.587 47.9993 15.7041C48.0111 15.945 47.8717 16.1604 47.6641 16.2544ZM40.8138 16.6754C42.7996 16.6754 44.805 16.2407 46.8259 15.3711C46.6575 13.6888 45.9682 12.1907 44.9478 11.094C43.8747 9.93854 42.4333 9.23159 40.8509 9.23159C39.2686 9.23159 37.8273 9.93859 36.754 11.094C35.7337 12.1927 35.0444 13.6908 34.876 15.3751C36.85 16.2407 38.8299 16.6754 40.8138 16.6754ZM42.9504 3.01766C42.4138 2.47911 41.6716 2.14812 40.851 2.14812C40.0305 2.14812 39.2883 2.48105 38.7517 3.01766C38.2151 3.55426 37.8822 4.2965 37.8822 5.11706C37.8822 5.93762 38.2151 6.67987 38.7517 7.21647C39.2883 7.75306 40.0305 8.08601 40.851 8.08601C41.6716 8.08601 42.4138 7.75308 42.9504 7.21647C43.487 6.67987 43.8199 5.93762 43.8199 5.11706C43.8199 4.2965 43.487 3.55426 42.9504 3.01766ZM8.11337 16.6754C10.0991 16.6754 12.1045 16.2407 14.1254 15.3711C13.957 13.6888 13.2677 12.1907 12.2474 11.094C11.1742 9.93854 9.73284 9.23159 8.15047 9.23159C6.56809 9.23159 5.12679 9.94055 4.05357 11.094C3.03325 12.1927 2.34391 13.6908 2.17551 15.3751C4.15149 16.2407 6.12942 16.6754 8.11337 16.6754ZM10.2499 3.01766C9.71334 2.48107 8.97111 2.14812 8.15057 2.14812C7.33002 2.14812 6.58779 2.48105 6.05121 3.01766C5.51463 3.55426 5.18169 4.2965 5.18169 5.11706C5.18169 5.93762 5.51461 6.67987 6.05121 7.21647C6.58779 7.75306 7.33002 8.08601 8.15057 8.08601C8.97111 8.08601 9.71334 7.75308 10.2499 7.21647C10.7865 6.67987 11.1194 5.93762 11.1194 5.11706C11.1194 4.2965 10.7885 3.55426 10.2499 3.01766Z"/>
</mask>
<path fill-rule="evenodd" clip-rule="evenodd" d="M8.14996 1C9.2858 1 10.3139 1.46022 11.0601 2.20439C11.8043 2.9486 12.2645 3.97872 12.2645 5.11458C12.2645 6.25044 11.8042 7.28056 11.0601 8.02476C10.878 8.20689 10.6802 8.3714 10.4667 8.51632C11.4537 8.89821 12.3448 9.51707 13.085 10.3141C14.3599 11.685 15.1883 13.5866 15.296 15.7036C15.3078 15.9445 15.1688 16.1599 14.9612 16.254V16.2559C12.6719 17.2978 10.3884 17.8187 8.11087 17.8187C5.83134 17.8187 3.5714 17.2978 1.33127 16.254C1.10018 16.1462 0.974848 15.9034 1.00423 15.6625C1.12173 13.5631 1.94815 11.6791 3.21323 10.3161C3.9535 9.51907 4.84453 8.90021 5.83157 8.51833C5.61811 8.37341 5.42031 8.2089 5.23818 8.02677C4.494 7.28257 4.03382 6.25244 4.03382 5.11659C4.03382 3.98073 4.49403 2.95256 5.23818 2.2064C5.98628 1.4622 7.01413 1 8.14996 1ZM7.01609 26.5317C7.05134 26.8451 6.82612 27.129 6.51279 27.1643C6.19749 27.1995 5.9155 26.9743 5.88025 26.661C5.83913 26.3124 5.80975 25.952 5.78821 25.5819C5.76667 25.2079 5.75688 24.8476 5.75688 24.4989C5.75688 24.0289 5.7745 23.555 5.80975 23.083C5.845 22.6071 5.89788 22.1391 5.96838 21.6788C6.01538 21.3655 6.30718 21.15 6.62052 21.1971C6.93387 21.2441 7.14929 21.5359 7.10228 21.8492C7.0357 22.2859 6.98674 22.7266 6.95344 23.1692C6.92015 23.602 6.90448 24.0465 6.90448 24.5009C6.90448 24.8592 6.91428 25.2 6.9319 25.5212C6.94757 25.8522 6.97692 26.189 7.01609 26.5317ZM16.7746 8.67717C16.4907 8.81621 16.1499 8.69871 16.0109 8.41474C15.8719 8.13077 15.9894 7.79001 16.2733 7.65099C17.5364 7.03407 18.876 6.55233 20.2723 6.23116C21.6333 5.91586 23.0493 5.75136 24.5004 5.75136C25.9515 5.75136 27.3654 5.91782 28.7285 6.23116C30.1248 6.5543 31.4643 7.03217 32.7275 7.65099C33.0114 7.79003 33.1289 8.13079 32.9899 8.41474C32.8508 8.69871 32.5101 8.81621 32.2261 8.67717C31.0472 8.09946 29.7899 7.65096 28.4739 7.34744C27.201 7.05368 25.8713 6.89897 24.5024 6.89897C23.1335 6.89897 21.8038 7.05368 20.5289 7.34744C19.2128 7.65099 17.9555 8.10142 16.7746 8.67717ZM41.9022 21.8436C41.8552 21.5303 42.0707 21.2385 42.384 21.1915C42.6973 21.1444 42.9891 21.3599 43.0361 21.6732C43.1066 22.1335 43.1595 22.6035 43.1948 23.0813C43.23 23.5553 43.2477 24.0292 43.2477 24.5011C43.2477 24.8497 43.2359 25.2101 43.2144 25.5842C43.1928 25.9543 43.1634 26.3146 43.1223 26.6632C43.0871 26.9766 42.8031 27.2018 42.4898 27.1665C42.1745 27.1313 41.9512 26.8473 41.9865 26.532C42.0257 26.1912 42.055 25.8524 42.0746 25.5195C42.0922 25.1984 42.102 24.8576 42.102 24.4992C42.102 24.0448 42.0844 23.5983 42.0531 23.1635C42.0198 22.7229 41.9688 22.2803 41.9022 21.8436ZM30.0877 41.1982C30.3873 41.0983 30.7105 41.2589 30.8103 41.5586C30.9102 41.8582 30.7496 42.1813 30.45 42.2812C29.5061 42.5965 28.5269 42.8394 27.5183 43.0039C26.5293 43.1644 25.5208 43.2467 24.5005 43.2467C23.4802 43.2467 22.4716 43.1625 21.4827 43.0019C20.4761 42.8394 19.4969 42.5965 18.551 42.2793C18.2514 42.1794 18.0908 41.8543 18.1907 41.5566C18.2906 41.257 18.6156 41.0964 18.9133 41.1963C19.8004 41.492 20.7189 41.7211 21.6609 41.8739C22.5774 42.0227 23.5272 42.0991 24.5005 42.0991C25.4738 42.0991 26.4217 42.0227 27.3382 41.8739C28.2821 41.7231 29.1986 41.494 30.0877 41.1982ZM16.6869 17.4959C16.4637 17.2727 16.4637 16.9103 16.6869 16.6851C16.9102 16.4619 17.2725 16.4619 17.4977 16.6851L19.2367 18.4242C19.46 18.6475 19.46 19.0117 19.2367 19.235C19.0135 19.4582 18.6512 19.4583 18.426 19.235L16.6869 17.4959ZM32.2284 33.0378C32.0052 32.8145 32.0052 32.4522 32.2284 32.227C32.4517 32.0037 32.814 32.0037 33.0392 32.227L35.4284 34.6162C35.6516 34.8395 35.6516 35.2018 35.4284 35.427C35.2051 35.6502 34.8428 35.6502 34.6176 35.427L32.2284 33.0378ZM31.5058 16.6852C31.729 16.462 32.0913 16.462 32.3165 16.6852C32.5398 16.9085 32.5398 17.2708 32.3165 17.496L30.5775 19.2351C30.3543 19.4583 29.9919 19.4583 29.7667 19.2351C29.5435 19.0118 29.5435 18.6495 29.7667 18.4243L31.5058 16.6852ZM15.9683 32.2231C16.1915 31.9998 16.5539 31.9998 16.7791 32.2231C17.0023 32.4463 17.0023 32.8086 16.7791 33.0338L14.386 35.427C14.1627 35.6502 13.8004 35.6502 13.5752 35.427C13.3519 35.2037 13.3519 34.8414 13.5752 34.6162L15.9683 32.2231ZM31.3138 31.3437V31.3418C31.5214 31.2478 31.6604 31.0343 31.6487 30.7915C31.539 28.6744 30.7106 26.7728 29.4357 25.4019C28.6954 24.6049 27.8044 23.986 26.8173 23.6042C27.0308 23.4592 27.2286 23.2947 27.4107 23.1126C28.1549 22.3684 28.6151 21.3383 28.6151 20.2024C28.6151 19.0666 28.1549 18.0384 27.4107 17.2922C26.6665 16.548 25.6364 16.0878 24.5006 16.0878C23.3648 16.0878 22.3347 16.5481 21.5905 17.2922C20.8463 18.0364 20.3861 19.0666 20.3861 20.2024C20.3861 21.3383 20.8463 22.3684 21.5905 23.1126C21.7726 23.2947 21.9704 23.4592 22.1839 23.6042C21.1968 23.986 20.3058 24.6049 19.5655 25.4019C18.3005 26.763 17.474 28.647 17.3565 30.7483C17.3252 30.9892 17.4525 31.2321 17.6836 31.3398C19.924 32.3836 22.1839 32.9045 24.4632 32.9045C26.7427 32.9065 29.0245 32.3856 31.3138 31.3437ZM24.4635 31.7648C22.4797 31.7648 20.4998 31.332 18.5256 30.4644C18.694 28.7802 19.3834 27.28 20.4037 26.1833C21.4769 25.0279 22.9182 24.3209 24.5006 24.3209C26.083 24.3209 27.5243 25.0279 28.5975 26.1833C29.6178 27.28 30.3071 28.7782 30.4755 30.4604C28.4545 31.33 26.4511 31.7648 24.4635 31.7648ZM26.6 18.107C27.1366 18.6436 27.4696 19.3859 27.4696 20.2064C27.4696 21.027 27.1366 21.7692 26.6 22.3058C26.0634 22.8424 25.3212 23.1754 24.5007 23.1754C23.6801 23.1754 22.9379 22.8424 22.4013 22.3058C21.8647 21.7692 21.5318 21.027 21.5318 20.2064C21.5318 19.3859 21.8647 18.6436 22.4013 18.107C22.9379 17.5704 23.6801 17.2375 24.5007 17.2375C25.3212 17.2375 26.0634 17.5704 26.6 18.107ZM14.9635 46.4353V46.4333C15.171 46.3393 15.3101 46.1259 15.2983 45.883C15.1906 43.766 14.3603 41.8644 13.0873 40.4935C12.3471 39.6964 11.456 39.0776 10.469 38.6957C10.6825 38.5508 10.8802 38.3863 11.0624 38.2041C11.8066 37.4599 12.2667 36.4298 12.2667 35.294C12.2667 34.1581 11.8065 33.1299 11.0624 32.3838C10.3182 31.6396 9.28809 31.1794 8.15225 31.1794C7.01642 31.1794 5.98632 31.6396 5.24213 32.3838C4.49599 33.1319 4.03581 34.1601 4.03581 35.2979C4.03581 36.4337 4.49603 37.4639 5.24018 38.2081C5.4223 38.3902 5.6201 38.5547 5.83356 38.6996C4.84653 39.0815 3.9555 39.7004 3.21522 40.4974C1.95014 41.8585 1.12369 43.7425 1.00622 45.8438C0.974888 46.0847 1.10218 46.3275 1.33327 46.4352C3.57365 47.479 5.83358 48 8.11287 48C10.3905 47.998 12.6742 47.4771 14.9635 46.4353ZM8.11317 46.8563C6.12937 46.8563 4.14948 46.4235 2.17531 45.5559C2.34373 43.8717 3.03305 42.3716 4.05337 41.2749C5.12654 40.1194 6.56789 39.4125 8.15026 39.4125C9.73264 39.4125 11.1739 40.1195 12.2472 41.2749C13.2675 42.3716 13.9568 43.8698 14.1252 45.552C12.1042 46.4215 10.1008 46.8544 8.11317 46.8563ZM10.2497 33.1986C10.7863 33.7352 11.1192 34.4774 11.1192 35.298C11.1192 36.1185 10.7863 36.8608 10.2497 37.3974C9.71314 37.934 8.97091 38.2669 8.15036 38.2669C7.32982 38.2669 6.58759 37.934 6.05101 37.3974C5.51443 36.8608 5.18149 36.1185 5.18149 35.298C5.18149 34.4774 5.51441 33.7352 6.05101 33.1986C6.58759 32.662 7.32982 32.329 8.15036 32.329C8.97091 32.329 9.71314 32.66 10.2497 33.1986ZM47.6641 46.4352V46.4333C47.8717 46.3392 48.0108 46.1258 47.999 45.8829C47.8893 43.7659 47.061 41.8643 45.7861 40.4934C45.0458 39.6964 44.1547 39.0775 43.1677 38.6956C43.3812 38.5507 43.579 38.3862 43.7611 38.2041C44.5053 37.4599 44.9655 36.4297 44.9655 35.2939C44.9655 34.158 44.5052 33.1299 43.7611 32.3837C43.0169 31.6395 41.9868 31.1793 40.851 31.1793C39.7151 31.1793 38.685 31.6395 37.9409 32.3837C37.1967 33.1279 36.7365 34.158 36.7365 35.2939C36.7365 36.4297 37.1967 37.4599 37.9409 38.2041C38.123 38.3862 38.3208 38.5507 38.5342 38.6956C37.5472 39.0775 36.6562 39.6964 35.9159 40.4934C34.6508 41.8545 33.8244 43.7385 33.7069 45.8398C33.6756 46.0807 33.8029 46.3235 34.0339 46.4312C36.2743 47.4751 38.5343 47.996 40.8135 47.996C43.0911 47.998 45.3749 47.4771 47.6641 46.4352ZM40.8138 46.8563C38.83 46.8563 36.8502 46.4235 34.876 45.5559C35.0444 43.8716 35.7337 42.3715 36.754 41.2748C37.8272 40.1193 39.2686 39.4124 40.8509 39.4124C42.4333 39.4124 43.8746 40.1194 44.9478 41.2748C45.9682 42.3715 46.6575 43.8697 46.8259 45.5519C44.8049 46.4214 42.8015 46.8543 40.8138 46.8563ZM42.9504 33.1985C43.487 33.7351 43.8199 34.4773 43.8199 35.2979C43.8199 36.1185 43.487 36.8607 42.9504 37.3973C42.4138 37.9339 41.6716 38.2668 40.851 38.2668C40.0305 38.2668 39.2883 37.9339 38.7517 37.3973C38.2151 36.8607 37.8822 36.1185 37.8822 35.2979C37.8822 34.4773 38.2151 33.7351 38.7517 33.1985C39.2883 32.6619 40.0305 32.329 40.851 32.329C41.6716 32.329 42.4138 32.6599 42.9504 33.1985ZM47.6641 16.2544C45.3748 17.2962 43.0914 17.8172 40.8138 17.8172C38.5343 17.8172 36.2744 17.2962 34.0342 16.2524C33.8032 16.1447 33.6778 15.9019 33.7072 15.661C33.8247 13.5616 34.6511 11.6776 35.9162 10.3146C36.6565 9.51754 37.5475 8.89867 38.5345 8.5168C38.3211 8.37188 38.1233 8.20737 37.9411 8.02524C37.197 7.28103 36.7368 6.25091 36.7368 5.11505C36.7368 3.9792 37.197 2.94907 37.9411 2.20487C38.6853 1.46067 39.7154 1.00048 40.8513 1.00048C41.9871 1.00048 43.0172 1.4607 43.7614 2.20487C44.5056 2.94904 44.9658 3.9792 44.9658 5.11505C44.9658 6.25091 44.5055 7.27908 43.7614 8.02524C43.5793 8.20737 43.3815 8.37188 43.168 8.5168C44.155 8.89868 45.0461 9.51754 45.7864 10.3146C47.0613 11.6855 47.8896 13.587 47.9993 15.7041C48.0111 15.945 47.8717 16.1604 47.6641 16.2544ZM40.8138 16.6754C42.7996 16.6754 44.805 16.2407 46.8259 15.3711C46.6575 13.6888 45.9682 12.1907 44.9478 11.094C43.8747 9.93854 42.4333 9.23159 40.8509 9.23159C39.2686 9.23159 37.8273 9.93859 36.754 11.094C35.7337 12.1927 35.0444 13.6908 34.876 15.3751C36.85 16.2407 38.8299 16.6754 40.8138 16.6754ZM42.9504 3.01766C42.4138 2.47911 41.6716 2.14812 40.851 2.14812C40.0305 2.14812 39.2883 2.48105 38.7517 3.01766C38.2151 3.55426 37.8822 4.2965 37.8822 5.11706C37.8822 5.93762 38.2151 6.67987 38.7517 7.21647C39.2883 7.75306 40.0305 8.08601 40.851 8.08601C41.6716 8.08601 42.4138 7.75308 42.9504 7.21647C43.487 6.67987 43.8199 5.93762 43.8199 5.11706C43.8199 4.2965 43.487 3.55426 42.9504 3.01766ZM8.11337 16.6754C10.0991 16.6754 12.1045 16.2407 14.1254 15.3711C13.957 13.6888 13.2677 12.1907 12.2474 11.094C11.1742 9.93854 9.73284 9.23159 8.15047 9.23159C6.56809 9.23159 5.12679 9.94055 4.05357 11.094C3.03325 12.1927 2.34391 13.6908 2.17551 15.3751C4.15149 16.2407 6.12942 16.6754 8.11337 16.6754ZM10.2499 3.01766C9.71334 2.48107 8.97111 2.14812 8.15057 2.14812C7.33002 2.14812 6.58779 2.48105 6.05121 3.01766C5.51463 3.55426 5.18169 4.2965 5.18169 5.11706C5.18169 5.93762 5.51461 6.67987 6.05121 7.21647C6.58779 7.75306 7.33002 8.08601 8.15057 8.08601C8.97111 8.08601 9.71334 7.75308 10.2499 7.21647C10.7865 6.67987 11.1194 5.93762 11.1194 5.11706C11.1194 4.2965 10.7885 3.55426 10.2499 3.01766Z" fill="url(#paint0_linear_137_2879)"/>
<path fill-rule="evenodd" clip-rule="evenodd" d="M8.14996 1C9.2858 1 10.3139 1.46022 11.0601 2.20439C11.8043 2.9486 12.2645 3.97872 12.2645 5.11458C12.2645 6.25044 11.8042 7.28056 11.0601 8.02476C10.878 8.20689 10.6802 8.3714 10.4667 8.51632C11.4537 8.89821 12.3448 9.51707 13.085 10.3141C14.3599 11.685 15.1883 13.5866 15.296 15.7036C15.3078 15.9445 15.1688 16.1599 14.9612 16.254V16.2559C12.6719 17.2978 10.3884 17.8187 8.11087 17.8187C5.83134 17.8187 3.5714 17.2978 1.33127 16.254C1.10018 16.1462 0.974848 15.9034 1.00423 15.6625C1.12173 13.5631 1.94815 11.6791 3.21323 10.3161C3.9535 9.51907 4.84453 8.90021 5.83157 8.51833C5.61811 8.37341 5.42031 8.2089 5.23818 8.02677C4.494 7.28257 4.03382 6.25244 4.03382 5.11659C4.03382 3.98073 4.49403 2.95256 5.23818 2.2064C5.98628 1.4622 7.01413 1 8.14996 1ZM7.01609 26.5317C7.05134 26.8451 6.82612 27.129 6.51279 27.1643C6.19749 27.1995 5.9155 26.9743 5.88025 26.661C5.83913 26.3124 5.80975 25.952 5.78821 25.5819C5.76667 25.2079 5.75688 24.8476 5.75688 24.4989C5.75688 24.0289 5.7745 23.555 5.80975 23.083C5.845 22.6071 5.89788 22.1391 5.96838 21.6788C6.01538 21.3655 6.30718 21.15 6.62052 21.1971C6.93387 21.2441 7.14929 21.5359 7.10228 21.8492C7.0357 22.2859 6.98674 22.7266 6.95344 23.1692C6.92015 23.602 6.90448 24.0465 6.90448 24.5009C6.90448 24.8592 6.91428 25.2 6.9319 25.5212C6.94757 25.8522 6.97692 26.189 7.01609 26.5317ZM16.7746 8.67717C16.4907 8.81621 16.1499 8.69871 16.0109 8.41474C15.8719 8.13077 15.9894 7.79001 16.2733 7.65099C17.5364 7.03407 18.876 6.55233 20.2723 6.23116C21.6333 5.91586 23.0493 5.75136 24.5004 5.75136C25.9515 5.75136 27.3654 5.91782 28.7285 6.23116C30.1248 6.5543 31.4643 7.03217 32.7275 7.65099C33.0114 7.79003 33.1289 8.13079 32.9899 8.41474C32.8508 8.69871 32.5101 8.81621 32.2261 8.67717C31.0472 8.09946 29.7899 7.65096 28.4739 7.34744C27.201 7.05368 25.8713 6.89897 24.5024 6.89897C23.1335 6.89897 21.8038 7.05368 20.5289 7.34744C19.2128 7.65099 17.9555 8.10142 16.7746 8.67717ZM41.9022 21.8436C41.8552 21.5303 42.0707 21.2385 42.384 21.1915C42.6973 21.1444 42.9891 21.3599 43.0361 21.6732C43.1066 22.1335 43.1595 22.6035 43.1948 23.0813C43.23 23.5553 43.2477 24.0292 43.2477 24.5011C43.2477 24.8497 43.2359 25.2101 43.2144 25.5842C43.1928 25.9543 43.1634 26.3146 43.1223 26.6632C43.0871 26.9766 42.8031 27.2018 42.4898 27.1665C42.1745 27.1313 41.9512 26.8473 41.9865 26.532C42.0257 26.1912 42.055 25.8524 42.0746 25.5195C42.0922 25.1984 42.102 24.8576 42.102 24.4992C42.102 24.0448 42.0844 23.5983 42.0531 23.1635C42.0198 22.7229 41.9688 22.2803 41.9022 21.8436ZM30.0877 41.1982C30.3873 41.0983 30.7105 41.2589 30.8103 41.5586C30.9102 41.8582 30.7496 42.1813 30.45 42.2812C29.5061 42.5965 28.5269 42.8394 27.5183 43.0039C26.5293 43.1644 25.5208 43.2467 24.5005 43.2467C23.4802 43.2467 22.4716 43.1625 21.4827 43.0019C20.4761 42.8394 19.4969 42.5965 18.551 42.2793C18.2514 42.1794 18.0908 41.8543 18.1907 41.5566C18.2906 41.257 18.6156 41.0964 18.9133 41.1963C19.8004 41.492 20.7189 41.7211 21.6609 41.8739C22.5774 42.0227 23.5272 42.0991 24.5005 42.0991C25.4738 42.0991 26.4217 42.0227 27.3382 41.8739C28.2821 41.7231 29.1986 41.494 30.0877 41.1982ZM16.6869 17.4959C16.4637 17.2727 16.4637 16.9103 16.6869 16.6851C16.9102 16.4619 17.2725 16.4619 17.4977 16.6851L19.2367 18.4242C19.46 18.6475 19.46 19.0117 19.2367 19.235C19.0135 19.4582 18.6512 19.4583 18.426 19.235L16.6869 17.4959ZM32.2284 33.0378C32.0052 32.8145 32.0052 32.4522 32.2284 32.227C32.4517 32.0037 32.814 32.0037 33.0392 32.227L35.4284 34.6162C35.6516 34.8395 35.6516 35.2018 35.4284 35.427C35.2051 35.6502 34.8428 35.6502 34.6176 35.427L32.2284 33.0378ZM31.5058 16.6852C31.729 16.462 32.0913 16.462 32.3165 16.6852C32.5398 16.9085 32.5398 17.2708 32.3165 17.496L30.5775 19.2351C30.3543 19.4583 29.9919 19.4583 29.7667 19.2351C29.5435 19.0118 29.5435 18.6495 29.7667 18.4243L31.5058 16.6852ZM15.9683 32.2231C16.1915 31.9998 16.5539 31.9998 16.7791 32.2231C17.0023 32.4463 17.0023 32.8086 16.7791 33.0338L14.386 35.427C14.1627 35.6502 13.8004 35.6502 13.5752 35.427C13.3519 35.2037 13.3519 34.8414 13.5752 34.6162L15.9683 32.2231ZM31.3138 31.3437V31.3418C31.5214 31.2478 31.6604 31.0343 31.6487 30.7915C31.539 28.6744 30.7106 26.7728 29.4357 25.4019C28.6954 24.6049 27.8044 23.986 26.8173 23.6042C27.0308 23.4592 27.2286 23.2947 27.4107 23.1126C28.1549 22.3684 28.6151 21.3383 28.6151 20.2024C28.6151 19.0666 28.1549 18.0384 27.4107 17.2922C26.6665 16.548 25.6364 16.0878 24.5006 16.0878C23.3648 16.0878 22.3347 16.5481 21.5905 17.2922C20.8463 18.0364 20.3861 19.0666 20.3861 20.2024C20.3861 21.3383 20.8463 22.3684 21.5905 23.1126C21.7726 23.2947 21.9704 23.4592 22.1839 23.6042C21.1968 23.986 20.3058 24.6049 19.5655 25.4019C18.3005 26.763 17.474 28.647 17.3565 30.7483C17.3252 30.9892 17.4525 31.2321 17.6836 31.3398C19.924 32.3836 22.1839 32.9045 24.4632 32.9045C26.7427 32.9065 29.0245 32.3856 31.3138 31.3437ZM24.4635 31.7648C22.4797 31.7648 20.4998 31.332 18.5256 30.4644C18.694 28.7802 19.3834 27.28 20.4037 26.1833C21.4769 25.0279 22.9182 24.3209 24.5006 24.3209C26.083 24.3209 27.5243 25.0279 28.5975 26.1833C29.6178 27.28 30.3071 28.7782 30.4755 30.4604C28.4545 31.33 26.4511 31.7648 24.4635 31.7648ZM26.6 18.107C27.1366 18.6436 27.4696 19.3859 27.4696 20.2064C27.4696 21.027 27.1366 21.7692 26.6 22.3058C26.0634 22.8424 25.3212 23.1754 24.5007 23.1754C23.6801 23.1754 22.9379 22.8424 22.4013 22.3058C21.8647 21.7692 21.5318 21.027 21.5318 20.2064C21.5318 19.3859 21.8647 18.6436 22.4013 18.107C22.9379 17.5704 23.6801 17.2375 24.5007 17.2375C25.3212 17.2375 26.0634 17.5704 26.6 18.107ZM14.9635 46.4353V46.4333C15.171 46.3393 15.3101 46.1259 15.2983 45.883C15.1906 43.766 14.3603 41.8644 13.0873 40.4935C12.3471 39.6964 11.456 39.0776 10.469 38.6957C10.6825 38.5508 10.8802 38.3863 11.0624 38.2041C11.8066 37.4599 12.2667 36.4298 12.2667 35.294C12.2667 34.1581 11.8065 33.1299 11.0624 32.3838C10.3182 31.6396 9.28809 31.1794 8.15225 31.1794C7.01642 31.1794 5.98632 31.6396 5.24213 32.3838C4.49599 33.1319 4.03581 34.1601 4.03581 35.2979C4.03581 36.4337 4.49603 37.4639 5.24018 38.2081C5.4223 38.3902 5.6201 38.5547 5.83356 38.6996C4.84653 39.0815 3.9555 39.7004 3.21522 40.4974C1.95014 41.8585 1.12369 43.7425 1.00622 45.8438C0.974888 46.0847 1.10218 46.3275 1.33327 46.4352C3.57365 47.479 5.83358 48 8.11287 48C10.3905 47.998 12.6742 47.4771 14.9635 46.4353ZM8.11317 46.8563C6.12937 46.8563 4.14948 46.4235 2.17531 45.5559C2.34373 43.8717 3.03305 42.3716 4.05337 41.2749C5.12654 40.1194 6.56789 39.4125 8.15026 39.4125C9.73264 39.4125 11.1739 40.1195 12.2472 41.2749C13.2675 42.3716 13.9568 43.8698 14.1252 45.552C12.1042 46.4215 10.1008 46.8544 8.11317 46.8563ZM10.2497 33.1986C10.7863 33.7352 11.1192 34.4774 11.1192 35.298C11.1192 36.1185 10.7863 36.8608 10.2497 37.3974C9.71314 37.934 8.97091 38.2669 8.15036 38.2669C7.32982 38.2669 6.58759 37.934 6.05101 37.3974C5.51443 36.8608 5.18149 36.1185 5.18149 35.298C5.18149 34.4774 5.51441 33.7352 6.05101 33.1986C6.58759 32.662 7.32982 32.329 8.15036 32.329C8.97091 32.329 9.71314 32.66 10.2497 33.1986ZM47.6641 46.4352V46.4333C47.8717 46.3392 48.0108 46.1258 47.999 45.8829C47.8893 43.7659 47.061 41.8643 45.7861 40.4934C45.0458 39.6964 44.1547 39.0775 43.1677 38.6956C43.3812 38.5507 43.579 38.3862 43.7611 38.2041C44.5053 37.4599 44.9655 36.4297 44.9655 35.2939C44.9655 34.158 44.5052 33.1299 43.7611 32.3837C43.0169 31.6395 41.9868 31.1793 40.851 31.1793C39.7151 31.1793 38.685 31.6395 37.9409 32.3837C37.1967 33.1279 36.7365 34.158 36.7365 35.2939C36.7365 36.4297 37.1967 37.4599 37.9409 38.2041C38.123 38.3862 38.3208 38.5507 38.5342 38.6956C37.5472 39.0775 36.6562 39.6964 35.9159 40.4934C34.6508 41.8545 33.8244 43.7385 33.7069 45.8398C33.6756 46.0807 33.8029 46.3235 34.0339 46.4312C36.2743 47.4751 38.5343 47.996 40.8135 47.996C43.0911 47.998 45.3749 47.4771 47.6641 46.4352ZM40.8138 46.8563C38.83 46.8563 36.8502 46.4235 34.876 45.5559C35.0444 43.8716 35.7337 42.3715 36.754 41.2748C37.8272 40.1193 39.2686 39.4124 40.8509 39.4124C42.4333 39.4124 43.8746 40.1194 44.9478 41.2748C45.9682 42.3715 46.6575 43.8697 46.8259 45.5519C44.8049 46.4214 42.8015 46.8543 40.8138 46.8563ZM42.9504 33.1985C43.487 33.7351 43.8199 34.4773 43.8199 35.2979C43.8199 36.1185 43.487 36.8607 42.9504 37.3973C42.4138 37.9339 41.6716 38.2668 40.851 38.2668C40.0305 38.2668 39.2883 37.9339 38.7517 37.3973C38.2151 36.8607 37.8822 36.1185 37.8822 35.2979C37.8822 34.4773 38.2151 33.7351 38.7517 33.1985C39.2883 32.6619 40.0305 32.329 40.851 32.329C41.6716 32.329 42.4138 32.6599 42.9504 33.1985ZM47.6641 16.2544C45.3748 17.2962 43.0914 17.8172 40.8138 17.8172C38.5343 17.8172 36.2744 17.2962 34.0342 16.2524C33.8032 16.1447 33.6778 15.9019 33.7072 15.661C33.8247 13.5616 34.6511 11.6776 35.9162 10.3146C36.6565 9.51754 37.5475 8.89867 38.5345 8.5168C38.3211 8.37188 38.1233 8.20737 37.9411 8.02524C37.197 7.28103 36.7368 6.25091 36.7368 5.11505C36.7368 3.9792 37.197 2.94907 37.9411 2.20487C38.6853 1.46067 39.7154 1.00048 40.8513 1.00048C41.9871 1.00048 43.0172 1.4607 43.7614 2.20487C44.5056 2.94904 44.9658 3.9792 44.9658 5.11505C44.9658 6.25091 44.5055 7.27908 43.7614 8.02524C43.5793 8.20737 43.3815 8.37188 43.168 8.5168C44.155 8.89868 45.0461 9.51754 45.7864 10.3146C47.0613 11.6855 47.8896 13.587 47.9993 15.7041C48.0111 15.945 47.8717 16.1604 47.6641 16.2544ZM40.8138 16.6754C42.7996 16.6754 44.805 16.2407 46.8259 15.3711C46.6575 13.6888 45.9682 12.1907 44.9478 11.094C43.8747 9.93854 42.4333 9.23159 40.8509 9.23159C39.2686 9.23159 37.8273 9.93859 36.754 11.094C35.7337 12.1927 35.0444 13.6908 34.876 15.3751C36.85 16.2407 38.8299 16.6754 40.8138 16.6754ZM42.9504 3.01766C42.4138 2.47911 41.6716 2.14812 40.851 2.14812C40.0305 2.14812 39.2883 2.48105 38.7517 3.01766C38.2151 3.55426 37.8822 4.2965 37.8822 5.11706C37.8822 5.93762 38.2151 6.67987 38.7517 7.21647C39.2883 7.75306 40.0305 8.08601 40.851 8.08601C41.6716 8.08601 42.4138 7.75308 42.9504 7.21647C43.487 6.67987 43.8199 5.93762 43.8199 5.11706C43.8199 4.2965 43.487 3.55426 42.9504 3.01766ZM8.11337 16.6754C10.0991 16.6754 12.1045 16.2407 14.1254 15.3711C13.957 13.6888 13.2677 12.1907 12.2474 11.094C11.1742 9.93854 9.73284 9.23159 8.15047 9.23159C6.56809 9.23159 5.12679 9.94055 4.05357 11.094C3.03325 12.1927 2.34391 13.6908 2.17551 15.3751C4.15149 16.2407 6.12942 16.6754 8.11337 16.6754ZM10.2499 3.01766C9.71334 2.48107 8.97111 2.14812 8.15057 2.14812C7.33002 2.14812 6.58779 2.48105 6.05121 3.01766C5.51463 3.55426 5.18169 4.2965 5.18169 5.11706C5.18169 5.93762 5.51461 6.67987 6.05121 7.21647C6.58779 7.75306 7.33002 8.08601 8.15057 8.08601C8.97111 8.08601 9.71334 7.75308 10.2499 7.21647C10.7865 6.67987 11.1194 5.93762 11.1194 5.11706C11.1194 4.2965 10.7885 3.55426 10.2499 3.01766Z" stroke="url(#paint1_linear_137_2879)" stroke-width="0.8" mask="url(#path-1-outside-1_137_2879)"/>
<defs>
<linearGradient id="paint0_linear_137_2879" x1="55.99" y1="0.999999" x2="-1.41423" y2="41.5853" gradientUnits="userSpaceOnUse">
<stop stop-color="#FF3C00"/>
<stop offset="1" stop-color="#06223C"/>
</linearGradient>
<linearGradient id="paint1_linear_137_2879" x1="55.99" y1="0.999999" x2="-1.41423" y2="41.5853" gradientUnits="userSpaceOnUse">
<stop stop-color="#FF3C00"/>
<stop offset="1" stop-color="#06223C"/>
</linearGradient>
</defs>
</svg>
