<svg width="46" height="47" viewBox="0 0 46 47" fill="none" xmlns="http://www.w3.org/2000/svg">
<path d="M16.2902 40.5755L15.8826 42.8558C15.6997 43.8847 15.9795 44.9378 16.6493 45.7375C17.3213 46.5395 18.3061 47 19.3526 47H26.1822C27.2287 47 28.2135 46.5395 28.8855 45.7375C29.5575 44.9356 29.8351 43.8847 29.6522 42.8558L29.2446 40.5755C29.0199 39.3131 28.1431 38.3107 26.9996 37.8876C27.6737 36.9954 28.088 35.8982 28.088 34.6975C28.088 31.7629 25.6997 29.3769 22.7673 29.3769C19.8327 29.3769 17.4467 31.7651 17.4467 34.6975C17.4467 35.9004 17.8609 36.9954 18.535 37.8876C17.3916 38.3107 16.5149 39.3131 16.2902 40.5755ZM22.7695 31.7234C24.4086 31.7234 25.7416 33.0563 25.7416 34.6954C25.7416 36.3323 24.4086 37.6675 22.7695 37.6675C21.1326 37.6675 19.7975 36.3345 19.7975 34.6954C19.7975 33.0585 21.1304 31.7234 22.7695 31.7234ZM18.1979 43.2681L18.6055 40.9878C18.7047 40.426 19.1938 40.0184 19.7622 40.0184H25.7791C26.3497 40.0184 26.8344 40.426 26.9357 40.9878L27.3433 43.2681C27.427 43.7374 27.2177 44.0722 27.0877 44.2286C26.9556 44.3851 26.6647 44.6494 26.1866 44.6494H19.357C18.8789 44.6494 18.5881 44.3873 18.4559 44.2286C18.3237 44.0722 18.1166 43.7395 18.2004 43.2681H18.1979Z" fill="url(#paint0_linear_137_3096)"/>
<path d="M38.599 29.3748C35.6644 29.3748 33.2784 31.763 33.2784 34.6954C33.2784 35.8983 33.6926 36.9933 34.3667 37.8856C33.2233 38.3086 32.3464 39.311 32.1217 40.5734L31.7141 42.8537C31.5312 43.8826 31.811 44.9357 32.483 45.7355C33.155 46.5374 34.1398 46.9979 35.1863 46.9979H42.0159C43.0624 46.9979 44.0472 46.5374 44.717 45.7377C45.389 44.9357 45.6688 43.8848 45.4859 42.8559L45.0783 40.5756C44.8536 39.3132 43.9768 38.3108 42.8333 37.8878C43.5075 36.9955 43.9217 35.8984 43.9217 34.6976C43.9217 31.763 41.5334 29.377 38.601 29.377L38.599 29.3748ZM38.599 31.7234C40.2381 31.7234 41.571 33.0563 41.571 34.6954C41.571 36.3324 40.2381 37.6675 38.599 37.6675C36.9621 37.6675 35.6269 36.3346 35.6269 34.6954C35.6269 33.0585 36.9599 31.7234 38.599 31.7234ZM42.9128 44.2286C42.7806 44.385 42.4898 44.6494 42.0117 44.6494H35.1821C34.704 44.6494 34.4131 44.3872 34.2809 44.2286C34.1487 44.0722 33.9394 43.7395 34.0254 43.268L34.433 40.9878C34.5321 40.4259 35.019 40.0183 35.5896 40.0183H41.6065C42.1771 40.0183 42.6618 40.4259 42.7632 40.9878L43.1707 43.268C43.2545 43.7373 43.0452 44.0722 42.9152 44.2286H42.9128Z" fill="url(#paint1_linear_137_3096)"/>
<path d="M0.46235 40.5755L0.0547624 42.8558C-0.128101 43.8847 0.151704 44.9378 0.823677 45.7375C1.49564 46.5395 2.48046 46.9978 3.52478 46.9978H10.3544C11.4009 46.9978 12.3857 46.5373 13.0577 45.7353C13.7296 44.9334 14.0094 43.8825 13.8266 42.8536L13.419 40.5733C13.1943 39.3109 12.3174 38.3085 11.174 37.8854C11.8481 36.9932 12.2623 35.896 12.2623 34.6953C12.2623 31.7607 9.87408 29.3746 6.94168 29.3746C4.00708 29.3746 1.62104 31.7629 1.62104 34.6953C1.62104 35.8982 2.03524 36.9932 2.70941 37.8854C1.56599 38.3085 0.689127 39.3109 0.464369 40.5733L0.46235 40.5755ZM6.93944 31.7234C8.57857 31.7234 9.91149 33.0563 9.91149 34.6954C9.91149 36.3323 8.57857 37.6675 6.93944 37.6675C5.30251 37.6675 3.96739 36.3345 3.96739 34.6954C3.96739 33.0585 5.30031 31.7234 6.93944 31.7234ZM2.37006 43.2681L2.77764 40.9878C2.87679 40.426 3.36591 40.0184 3.93432 40.0184H9.95117C10.5218 40.0184 11.0065 40.426 11.1078 40.9878L11.5154 43.2681C11.5992 43.7374 11.3899 44.0722 11.2599 44.2286C11.1277 44.3851 10.8369 44.6494 10.3588 44.6494H3.52915C3.05107 44.6494 2.76024 44.3873 2.62804 44.2286C2.49585 44.0722 2.28654 43.7395 2.37247 43.2681H2.37006Z" fill="url(#paint2_linear_137_3096)"/>
<path d="M9.84346 21.1482C7.90028 21.1482 6.3184 22.7301 6.3184 24.6732V27.024C6.3184 27.6717 6.84495 28.1983 7.49267 28.1983C8.14038 28.1983 8.66694 27.6717 8.66694 27.024V24.6732C8.66694 24.0255 9.19349 23.499 9.8412 23.499H21.5907V27.024C21.5907 27.6717 22.1172 28.1983 22.7649 28.1983C23.4126 28.1983 23.9392 27.6717 23.9392 27.024V23.499H35.6887C36.3364 23.499 36.8629 24.0255 36.8629 24.6732V27.024C36.8629 27.6717 37.3895 28.1983 38.0372 28.1983C38.6849 28.1983 39.2115 27.6717 39.2115 27.024V24.6732C39.2115 22.7301 37.6296 21.1482 35.6864 21.1482H23.9369V17.6231H26.1776C27.2241 17.6231 28.2089 17.1627 28.8809 16.3607C29.5528 15.5587 29.8305 14.5078 29.6476 13.4789L29.24 11.1986C29.0153 9.93622 28.1384 8.93381 26.995 8.5108C27.6691 7.61853 28.0833 6.52137 28.0833 5.32065C28.0833 2.38604 25.6951 0 22.7627 0C19.8281 0 17.4421 2.38824 17.4421 5.32065C17.4421 6.52357 17.8562 7.61853 18.5304 8.5108C17.387 8.93381 16.5101 9.93622 16.2854 11.1986L15.8778 13.4789C15.6949 14.5078 15.9747 15.5609 16.6445 16.3607C17.3165 17.1627 18.3013 17.6231 19.3478 17.6231H21.5884V21.1482H9.83899H9.84346ZM22.7694 2.34859C24.4086 2.34859 25.7415 3.68152 25.7415 5.32065C25.7415 6.95757 24.4086 8.2927 22.7694 8.2927C21.1325 8.2927 19.7974 6.95977 19.7974 5.32065C19.7974 3.68372 21.1303 2.34859 22.7694 2.34859ZM18.4535 14.8538C18.3213 14.6974 18.1142 14.3647 18.1979 13.8933L18.6055 11.613C18.7046 11.0512 19.1938 10.6435 19.7622 10.6435H25.779C26.3496 10.6435 26.8343 11.0511 26.9357 11.613L27.3433 13.8933C27.427 14.3625 27.2177 14.6974 27.0877 14.8538C26.9555 15.0102 26.6647 15.2746 26.1866 15.2746H19.357C18.8789 15.2746 18.5881 15.0125 18.4559 14.8538H18.4535Z" fill="url(#paint3_linear_137_3096)"/>
<defs>
<linearGradient id="paint0_linear_137_3096" x1="53.2826" y1="-1.01737e-06" x2="-3.49608" y2="38.8966" gradientUnits="userSpaceOnUse">
<stop stop-color="#FF3C00"/>
<stop offset="1" stop-color="#06223C"/>
</linearGradient>
<linearGradient id="paint1_linear_137_3096" x1="53.2826" y1="-1.01737e-06" x2="-3.49608" y2="38.8966" gradientUnits="userSpaceOnUse">
<stop stop-color="#FF3C00"/>
<stop offset="1" stop-color="#06223C"/>
</linearGradient>
<linearGradient id="paint2_linear_137_3096" x1="53.2826" y1="-1.01737e-06" x2="-3.49608" y2="38.8966" gradientUnits="userSpaceOnUse">
<stop stop-color="#FF3C00"/>
<stop offset="1" stop-color="#06223C"/>
</linearGradient>
<linearGradient id="paint3_linear_137_3096" x1="53.2826" y1="-1.01737e-06" x2="-3.49608" y2="38.8966" gradientUnits="userSpaceOnUse">
<stop stop-color="#FF3C00"/>
<stop offset="1" stop-color="#06223C"/>
</linearGradient>
</defs>
</svg>
